<?xml version="1.0" encoding="UTF-8"?>
<svg id="Layer_2" data-name="Layer 2" xmlns="http://www.w3.org/2000/svg" viewBox="0 0 100 97.5">
  <defs>
    <style>
      .cls-1 {
        fill: #ff9a00;
      }

      .cls-2 {
        fill: #300;
      }
    </style>
  </defs>
  <g id="Layer_1-2" data-name="Layer 1">
    <g id="Layer_2-2" data-name="Layer 2">
      <g id="Surfaces">
        <g id="Drawing_Surface" data-name="Drawing Surface">
          <g id="Outline_no_shadow" data-name="Outline no shadow">
            <path class="cls-2" d="m17.71,0h64.58c9.79,0,17.71,7.92,17.71,17.71v62.08c0,9.79-7.92,17.71-17.71,17.71H17.71c-9.79,0-17.71-7.92-17.71-17.71V17.71C0,7.92,7.92,0,17.71,0Z"/>
          </g>
        </g>
      </g>
      <g id="Outlined_Mnemonics_Logos" data-name="Outlined Mnemonics Logos">
        <g id="Ai">
          <path class="cls-1" d="m48.46,58.5h-15.5l-3.17,9.79c-.08.37-.42.62-.79.58h-7.83c-.46,0-.58-.25-.46-.75l13.42-38.62c.13-.42.25-.87.42-1.38.17-.87.25-1.79.25-2.71-.04-.21.13-.42.33-.46h10.79c.33,0,.5.12.54.33l15.21,42.92c.13.46,0,.67-.42.67h-8.71c-.29.04-.58-.17-.67-.46l-3.42-9.92Zm-13.08-8.46h10.58c-.25-.87-.58-1.92-.96-3-.38-1.12-.75-2.33-1.12-3.58-.42-1.29-.79-2.54-1.21-3.83s-.79-2.5-1.12-3.71c-.33-1.17-.62-2.25-.92-3.25h-.08c-.38,1.79-.83,3.58-1.42,5.38-.63,2-1.25,4.08-1.92,6.17-.58,2.12-1.21,4.08-1.83,5.83h0Z"/>
          <path class="cls-1" d="m70.75,32.08c-1.38.04-2.71-.5-3.71-1.46-.96-1.04-1.46-2.42-1.42-3.83-.04-1.42.5-2.75,1.5-3.71,1-.96,2.33-1.46,3.71-1.46,1.62,0,2.87.5,3.79,1.46.92,1,1.42,2.33,1.38,3.71.04,1.42-.46,2.79-1.46,3.83-.96,1-2.38,1.54-3.79,1.46Zm-4.67,36.17v-32.08c0-.42.17-.58.54-.58h8.25c.37,0,.54.21.54.58v32.08c0,.46-.17.67-.54.67h-8.17c-.42,0-.62-.25-.62-.67Z"/>
        </g>
      </g>
    </g>
  </g>
</svg>