<?xml version="1.0" encoding="UTF-8"?>
<svg id="Layer_2" data-name="Layer 2" xmlns="http://www.w3.org/2000/svg" viewBox="0 0 100 79.66">
  <defs>
    <style>
      .cls-1 {
        fill: #fff;
      }

      .cls-2 {
        fill: #7952b3;
      }
    </style>
  </defs>
  <g id="Layer_1-2" data-name="Layer 1">
    <g>
      <path class="cls-2" d="m90.73,27.85c-1.7-5.5-1.93-12.23-1.75-17.44.19-5.41-4.03-10.41-9.74-10.41H20.77c-5.71,0-9.93,4.99-9.74,10.41.18,5.2-.05,11.94-1.75,17.44-1.7,5.51-4.58,9-9.28,9.45v5.06c4.7.45,7.58,3.94,9.28,9.45,1.7,5.5,1.93,12.23,1.75,17.44-.19,5.41,4.03,10.41,9.74,10.41h58.47c5.71,0,9.93-4.99,9.74-10.41-.18-5.2.06-11.94,1.75-17.44,1.7-5.51,4.57-9,9.27-9.45v-5.06c-4.7-.45-7.57-3.94-9.27-9.45Zm-37.73,33.17h-15.71c-.94,0-1.7-.76-1.7-1.7V20.34c0-.94.76-1.7,1.7-1.7h15.63c7.7,0,12.75,4.17,12.75,10.57,0,4.49-3.4,8.52-7.73,9.22v.23c5.9.65,9.86,4.73,9.86,10.37,0,7.46-5.56,11.98-14.8,11.98Z"/>
      <path class="cls-1" d="m57.93,38.67v-.23c4.33-.7,7.73-4.73,7.73-9.22,0-6.4-5.05-10.57-12.75-10.57h-15.63c-.94,0-1.7.76-1.7,1.7v38.98c0,.94.76,1.7,1.7,1.7h15.71c9.23,0,14.8-4.52,14.8-11.98,0-5.64-3.97-9.72-9.86-10.37Zm-15.6-14.65h8.96c4.87,0,7.64,2.17,7.64,6.11,0,4.2-3.22,6.55-9.05,6.55h-7.55v-12.66Zm9.29,31.63h-9.29v-13.95h8.9c6.37,0,9.68,2.35,9.68,6.93s-3.22,7.02-9.29,7.02Z"/>
      <path class="cls-2" d="m51.23,41.69h-8.9v13.95h9.29c6.07,0,9.29-2.44,9.29-7.02s-3.31-6.93-9.68-6.93Z"/>
      <path class="cls-2" d="m58.93,30.12c0-3.94-2.77-6.11-7.64-6.11h-8.96v12.66h7.55c5.83,0,9.05-2.35,9.05-6.55Z"/>
    </g>
  </g>
</svg>