<?xml version="1.0" encoding="UTF-8"?>
<svg id="Layer_2" data-name="Layer 2" xmlns="http://www.w3.org/2000/svg" viewBox="0 0 88.17 100">
  <defs>
    <style>
      .cls-1 {
        fill: #fff;
      }

      .cls-2 {
        fill: #1572b6;
      }

      .cls-3 {
        fill: #33a9dc;
      }

      .cls-4 {
        fill: #ebebeb;
      }
    </style>
  </defs>
  <g id="Layer_1-2" data-name="Layer 1">
    <g>
      <path class="cls-2" d="m8.02,90L0,0h88.17l-8.03,89.99-36.11,10.01s-36.01-10-36.01-10Z"/>
      <path class="cls-3" d="m44.09,92.35l29.18-8.09,6.86-76.9h-36.04s0,84.99,0,84.99Z"/>
      <path class="cls-1" d="m44.09,39.97h14.61l1.01-11.3h-15.62v-11.04h27.68l-.26,2.96-2.71,30.42h-24.7s0-11.04,0-11.04Z"/>
      <path class="cls-4" d="m44.15,68.63h-.05s-12.29-3.3-12.29-3.3l-.79-8.8h-11.08l1.55,17.33,22.61,6.28h.05s0-11.5,0-11.5Z"/>
      <path class="cls-1" d="m57.76,50.54l-1.33,14.78-12.31,3.32v11.48l22.63-6.27.17-1.87,1.92-21.45s-11.07,0-11.07,0Z"/>
      <path class="cls-4" d="m44.13,17.62v11.04h-26.66l-.22-2.48-.5-5.6-.26-2.96s27.65,0,27.65,0Zm-.04,22.34v11.04h-12.14l-.22-2.48-.5-5.6-.26-2.96h13.13Z"/>
    </g>
  </g>
</svg>