<?xml version="1.0" encoding="UTF-8"?>
<svg id="Layer_2" data-name="Layer 2" xmlns="http://www.w3.org/2000/svg" viewBox="0 0 86.66 100">
  <defs>
    <style>
      .cls-1 {
        fill: #f0f0f0;
      }

      .cls-2 {
        fill: #008ece;
      }

      .cls-3 {
        fill: #136da9;
      }

      .cls-4 {
        fill: #a0d8f1;
      }

      .cls-5 {
        fill: none;
        stroke: #fffdff;
      }
    </style>
  </defs>
  <g id="Layer_1-2" data-name="Layer 1">
    <g>
      <path class="cls-3" d="m28.51,15.94C11.01,23.37,0,37.95,0,56.67c0,23.93,19.4,43.33,43.33,43.33s43.33-19.4,43.33-43.33c0-28.77-26.73-40.21-26.73-40.21,0,0-5.84-2.42-9.1-4.6,0,0-4.12-2.52-11.31-11.8,0,0,.16,10.54-11,15.88"/>
      <path class="cls-1" d="m38.99,91.61c-1.52-1.06-1.16-4.43,2.96-2.02,0,0,8.78,6.45,22.68-1.29,1.08-.6,2.41,1.52-1.03,3.47,0,0-14.05,7.19-24.62-.16h0Z"/>
      <path class="cls-5" d="m38.99,91.61c-1.52-1.06-1.16-4.43,2.96-2.02,0,0,8.78,6.45,22.68-1.29,1.08-.6,2.41,1.52-1.03,3.47,0,0-14.05,7.19-24.62-.16h0Z"/>
      <path class="cls-1" d="m56.91,80.92c5.11.6,3.35,3.06,4.73,3.44,2.79.77,1.59-2.28,1.59-2.28-2.06-4.12-5.63-3.87-5.63-3.87-5.59-.86-9.75,4.47-9.75,4.47-1.03,2.28.41,2.39.95,2.15,2.71-1.25,4.35-4.35,8.12-3.91h0Z"/>
      <path class="cls-5" d="m56.91,80.92c5.11.6,3.35,3.06,4.73,3.44,2.79.77,1.59-2.28,1.59-2.28-2.06-4.12-5.63-3.87-5.63-3.87-5.59-.86-9.75,4.47-9.75,4.47-1.03,2.28.41,2.39.95,2.15,2.71-1.25,4.35-4.35,8.12-3.91h0Z"/>
      <path class="cls-2" d="m5.67,78.46s15.54,12.85,53.34-15.78c0,0,18.99-11.92,18.42-32.36,0,0-6.15-8.83-16.51-13.39-1.48-.65-14.43-7.72-21.43-16.58,0,0-1.27,25.72-34.21,35.88,0,0-8.3,12.24-3.78,32.14,0,0,2.9,8.07,4.17,10.1"/>
      <path class="cls-1" d="m30.32,83.24s-12.89.34-11.34-13.41c0,0,2.69-15.47,20.79-12.03,0,0,3.95.86,11.34,6.53,0,0,4.88,3.76,7.56,3.69,0,0,2.08.2,6.42-2.54,0,0,8.84-6.82,11.92-6.62.08,0,6.23-.67,6.23,9.25,0,0,.11,10.94-8.13,14.61,0,0-2.18.74-4.53-1.72,0,0-6.76-7.68-10.08-8.94,0,0-1.92-.75-4.47.17,0,0-1.66.17-8.48,4.7,0,0-11.46,7.16-17.24,6.3h0Z"/>
      <path class="cls-5" d="m30.32,83.24s-12.89.34-11.34-13.41c0,0,2.69-15.47,20.79-12.03,0,0,3.95.86,11.34,6.53,0,0,4.88,3.76,7.56,3.69,0,0,2.08.2,6.42-2.54,0,0,8.84-6.82,11.92-6.62.08,0,6.23-.67,6.23,9.25,0,0,.11,10.94-8.13,14.61,0,0-2.18.74-4.53-1.72,0,0-6.76-7.68-10.08-8.94,0,0-1.92-.75-4.47.17,0,0-1.66.17-8.48,4.7,0,0-11.46,7.16-17.24,6.3h0Z"/>
      <path class="cls-2" d="m37.13,33.91C45.48,21.96,39.49,0,39.49,0c-.74,11.91-10.79,15.85-10.79,15.85C10.7,23.62,5.28,35.88,5.28,35.88c3.86,5.47,14.1,23.47,31.86-1.96"/>
      <path class="cls-4" d="m39.49,0s1.08,10.02-4.36,13.29c0,0-8.73,4.06-11.39,5.39,0,0-11.21,6.76-14.9,13.12,0,0-7.91,10.58,3.01,8.08,0,0,19.73-5.57,27.75-22.38,0,0,.47-1.42-1.03-2.88,0,0,6.02-4.54.92-14.62"/>
      <path class="cls-1" d="m39.49,0s.45,6.85-5.23,12.52c0,0-1.71,2.41-10.52,6.17,0,0-10.09,5.26-14.61,12.56,0,0-6.7,8.09,2.49,5.92,0,0,18.63-6.86,25.45-19.47,0,0,.92-1.32-.48-2.69,0,0,6.68-5.22,2.91-15"/>
    </g>
  </g>
</svg>