<?xml version="1.0" encoding="UTF-8"?>
<svg id="Layer_2" data-name="Layer 2" xmlns="http://www.w3.org/2000/svg" viewBox="0 0 100 97.5">
  <defs>
    <style>
      .cls-1 {
        fill: #ff61f6;
      }

      .cls-2 {
        fill: #470137;
      }
    </style>
  </defs>
  <g id="Layer_1-2" data-name="Layer 1">
    <g id="Layer_2-2" data-name="Layer 2">
      <g id="Surfaces">
        <g id="UI_UX_Surface" data-name="UI UX Surface">
          <g id="Outline_no_shadow" data-name="Outline no shadow">
            <path class="cls-2" d="m17.71,0h64.58c9.79,0,17.71,7.92,17.71,17.71v62.08c0,9.79-7.92,17.71-17.71,17.71H17.71c-9.79,0-17.71-7.92-17.71-17.71V17.71C0,7.92,7.92,0,17.71,0Z"/>
          </g>
        </g>
      </g>
      <g id="Outlined_Mnemonics_Logos" data-name="Outlined Mnemonics Logos">
        <g id="Dw">
          <path class="cls-1" d="m9.5,68.25V25.58c-.04-.25.17-.5.42-.54h.04c.62-.04,1.58-.08,2.79-.08,1.25-.04,2.67-.04,4.33-.08,1.67-.04,3.42-.04,5.29-.04,5.08,0,9.33.92,12.67,2.75,3.21,1.71,5.83,4.33,7.54,7.54,1.67,3.21,2.5,6.88,2.5,11.04.04,2.92-.38,5.79-1.29,8.54-.79,2.33-2,4.5-3.58,6.42-1.46,1.75-3.21,3.25-5.13,4.46-1.88,1.17-3.96,2.04-6.12,2.63-2.08.54-4.25.83-6.42.83h-4.71c-1.67,0-3.25,0-4.67-.04-1.46-.04-2.54-.04-3.25-.08-.29,0-.42-.25-.42-.67Zm8.79-35.17v27.79c.46,0,.87,0,1.29.04.38.04.79.04,1.17.08.42.04.87.04,1.37.04,1.92.04,3.83-.29,5.67-.96,1.67-.58,3.12-1.54,4.38-2.83,1.25-1.33,2.21-2.92,2.79-4.62.67-2,1-4.13,1-6.25.04-2-.29-4-.96-5.87-1.17-3.25-3.79-5.75-7.12-6.75-1.79-.54-3.63-.83-5.5-.79-.83,0-1.54,0-2.12.04-.58,0-1.25.04-1.96.08h0Z"/>
          <path class="cls-1" d="m82.42,68.92h-7.79c-.17.04-.37-.04-.5-.17-.13-.17-.21-.33-.25-.5-.79-3.33-1.46-6.33-2-8.88-.54-2.58-1-4.75-1.33-6.54s-.63-3.29-.88-4.54c-.21-1.25-.42-2.29-.54-3.17h-.04c-.42,1.83-.79,3.62-1.17,5.33-.33,1.71-.75,3.46-1.17,5.21s-.88,3.67-1.42,5.75c-.5,2.08-1.08,4.38-1.71,6.83-.08.46-.29.67-.67.67h-7.79c-.21.04-.42-.04-.58-.13-.13-.13-.21-.29-.29-.46l-8.12-32.21c-.13-.38.04-.54.5-.54h7.87c.37,0,.58.13.63.42.83,3.67,1.54,6.83,2.08,9.5s1,4.92,1.29,6.79c.29,1.88.58,3.42.79,4.58s.37,2.17.5,2.92h.13c.08-.67.17-1.29.29-1.96.17-.79.37-1.83.63-3.12s.54-2.79.92-4.54c.37-1.75.79-3.75,1.29-6.08.46-2.29,1.12-4.92,1.92-7.88,0-.17.08-.38.17-.54.04-.08.21-.13.46-.13h8.17c.25,0,.37.17.42.46.71,3.04,1.29,5.71,1.79,8,.46,2.29.88,4.33,1.25,6.12.33,1.75.62,3.29.79,4.54.17,1.29.37,2.33.54,3.21.13.71.25,1.42.29,2.13h.13c.21-.83.37-1.83.54-2.96.17-1.12.37-2.37.67-3.79.25-1.42.54-2.96.88-4.67.29-1.71.71-3.58,1.17-5.71.46-2.08.96-4.38,1.54-6.83.08-.38.25-.54.54-.54h7.29c.37,0,.5.21.42.58l-9,32.12c-.04.17-.13.33-.25.46,0,.21-.17.29-.37.25Z"/>
        </g>
      </g>
    </g>
  </g>
</svg>