<?xml version="1.0" encoding="UTF-8"?>
<svg id="Layer_2" data-name="Layer 2" xmlns="http://www.w3.org/2000/svg" viewBox="0 0 66.67 100">
  <defs>
    <style>
      .cls-1 {
        fill: #f24e1e;
      }

      .cls-2 {
        fill: #a259ff;
      }

      .cls-3 {
        fill: #ff7262;
      }

      .cls-4 {
        fill: #1abcfe;
      }

      .cls-5 {
        fill: #0acf83;
      }
    </style>
  </defs>
  <g id="Layer_1-2" data-name="Layer 1">
    <g>
      <path id="path0_fill" data-name="path0 fill" class="cls-5" d="m16.67,100c9.2,0,16.67-7.47,16.67-16.67v-16.67h-16.67c-9.2,0-16.67,7.47-16.67,16.67s7.47,16.67,16.67,16.67Z"/>
      <path id="path1_fill" data-name="path1 fill" class="cls-2" d="m0,50c0-9.2,7.47-16.67,16.67-16.67h16.67v33.33h-16.67c-9.2,0-16.67-7.47-16.67-16.67Z"/>
      <path id="path1_fill-2" data-name="path1 fill" class="cls-1" d="m0,16.67C0,7.47,7.47,0,16.67,0h16.67v33.33h-16.67C7.47,33.33,0,25.87,0,16.67Z"/>
      <path id="path2_fill" data-name="path2 fill" class="cls-3" d="m33.33,0h16.67c9.2,0,16.67,7.47,16.67,16.67s-7.47,16.67-16.67,16.67h-16.67V0Z"/>
      <path id="path3_fill" data-name="path3 fill" class="cls-4" d="m66.67,50c0,9.2-7.47,16.67-16.67,16.67s-16.67-7.47-16.67-16.67,7.47-16.67,16.67-16.67,16.67,7.47,16.67,16.67Z"/>
    </g>
  </g>
</svg>