<?xml version="1.0" encoding="UTF-8"?>
<svg id="Layer_2" data-name="Layer 2" xmlns="http://www.w3.org/2000/svg" viewBox="0 0 100 100">
  <defs>
    <style>
      .cls-1 {
        fill: #fff;
      }

      .cls-2 {
        fill: #cf4547;
      }
    </style>
  </defs>
  <g id="Layer_1-2" data-name="Layer 1">
    <g>
      <path class="cls-2" d="m0,0h100v100H0V0Z"/>
      <g>
        <path class="cls-1" d="m34.6,50.67c-.05.07-.13.28-.25.64-.12.36-.27.81-.44,1.36-.17.54-.36,1.16-.56,1.83-.2.67-.41,1.36-.62,2.06-.21.7-.42,1.39-.61,2.07-.2.67-.37,1.28-.53,1.83-.15.54-.28,1-.39,1.37-.1.37-.17.59-.19.65-.06.22-.15.46-.28.73s-.28.52-.45.76c-.17.24-.36.44-.57.59s-.42.24-.64.24c-.37,0-.64-.12-.8-.37s-.25-.7-.25-1.35v-.29c0-.1,0-.2.02-.31.01-.22.1-.63.26-1.23.16-.6.35-1.28.58-2.04s.47-1.54.72-2.35c.26-.81.49-1.54.7-2.18-.61.68-1.27,1.36-1.99,2.04-.71.68-1.45,1.28-2.19,1.82-.75.54-1.5.98-2.26,1.32-.76.34-1.49.51-2.19.51-.81,0-1.5-.18-2.08-.53-.58-.35-1.06-.82-1.44-1.39s-.66-1.22-.85-1.94-.28-1.45-.28-2.17v-.27c0-.08,0-.16.02-.24.07-1.31.26-2.65.56-4.03.31-1.38.71-2.75,1.2-4.11.5-1.36,1.07-2.7,1.72-4,.65-1.3,1.36-2.53,2.12-3.69s1.58-2.23,2.44-3.2,1.75-1.81,2.66-2.51c.91-.7,1.83-1.25,2.75-1.65.93-.4,1.85-.59,2.75-.59,1.05,0,2.06.29,3.04.86.98.57,1.89,1.5,2.74,2.78.2.29.32.58.37.87s.08.57.08.83c0,.61-.15,1.1-.44,1.45s-.64.53-1.04.53c-.37,0-.71-.19-1.03-.58-.32-.39-.67-.94-1.06-1.67-.37-.65-.77-1.13-1.22-1.42s-.92-.44-1.44-.44c-.81,0-1.67.33-2.58,1-.91.67-1.82,1.55-2.72,2.65s-1.76,2.35-2.58,3.76c-.82,1.41-1.55,2.86-2.18,4.33s-1.14,2.94-1.51,4.38-.56,2.73-.56,3.88c0,.38.03.77.08,1.18s.15.77.29,1.09c.14.33.34.6.59.81.25.21.56.32.94.32.43,0,.91-.14,1.45-.43.54-.29,1.1-.66,1.68-1.12.58-.46,1.17-.99,1.75-1.57s1.13-1.18,1.64-1.78c.51-.6.96-1.18,1.35-1.73.39-.55.69-1.03.88-1.44l1.61-4.8c.2-.52.45-.89.77-1.1.32-.22.64-.33.98-.33.16,0,.32.03.48.08.16.05.31.14.43.26.13.12.23.27.3.45s.11.4.11.64c0,.65-.06,1.27-.17,1.84s-.26,1.13-.44,1.68-.38,1.09-.6,1.65c-.22.55-.43,1.12-.63,1.73h0Zm21.77,4.01c-.51.68-1.1,1.35-1.77,1.99-.67.65-1.37,1.22-2.08,1.73s-1.42.91-2.11,1.22c-.69.31-1.31.46-1.86.46s-1-.18-1.35-.55c-.34-.37-.52-1-.52-1.88,0-.63.09-1.36.28-2.19-.3.53-.67,1.07-1.12,1.62-.45.54-.96,1.04-1.54,1.49s-1.22.81-1.93,1.09c-.71.28-1.49.42-2.33.42-.38,0-.75-.05-1.1-.14s-.66-.26-.92-.49-.48-.54-.64-.93c-.16-.39-.24-.88-.24-1.46,0-.01.02-.22.07-.62s.19-1.04.44-1.9c.25-.87.63-1.99,1.15-3.36.52-1.38,1.25-3.05,2.19-5.01.24-.52.52-.89.84-1.11.32-.23.66-.34,1.03-.34.16,0,.33.02.5.07.17.05.33.12.48.23.15.1.27.23.36.39s.14.34.14.54c0,.14-.02.27-.05.39-.06.23-.18.53-.37.91-.19.38-.41.81-.66,1.29s-.52,1-.8,1.57c-.28.56-.54,1.14-.79,1.74s-.45,1.21-.62,1.83c-.17.62-.27,1.22-.29,1.81,0,.24.06.47.17.68.12.2.31.31.57.31.75,0,1.46-.24,2.14-.74.68-.49,1.31-1.1,1.88-1.83.58-.73,1.1-1.51,1.56-2.35.47-.84.86-1.6,1.17-2.3.22-.46.41-.96.58-1.49s.35-1.02.54-1.47.42-.82.67-1.12c.25-.3.57-.45.95-.45.41,0,.74.16.98.47s.36.69.36,1.12c0,.24-.08.58-.23,1.01s-.35.92-.59,1.47c-.24.55-.49,1.14-.77,1.77-.28.63-.53,1.27-.77,1.91-.24.65-.43,1.28-.59,1.9-.15.62-.23,1.2-.23,1.73,0,.49.25.74.76.74.36,0,.8-.12,1.33-.37.53-.24,1.09-.59,1.67-1.03.58-.44,1.16-.96,1.74-1.57.58-.6,1.1-1.25,1.55-1.94l.17,2.78h0Z"/>
        <path class="cls-1" d="m29.08,64.93c-.41,0-.72-.14-.91-.43-.18-.27-.27-.74-.27-1.42v-.29c0-.1,0-.21.02-.32.01-.23.1-.64.26-1.25.15-.56.33-1.2.58-2.04.2-.68.43-1.43.73-2.36.19-.6.36-1.13.51-1.6-.5.54-1.03,1.07-1.59,1.6-.7.67-1.44,1.28-2.21,1.83-.76.54-1.53.99-2.29,1.33-.77.35-1.53.52-2.25.52-.82,0-1.55-.18-2.15-.55-.59-.36-1.09-.84-1.48-1.43-.39-.58-.68-1.25-.86-1.98-.19-.73-.28-1.47-.28-2.2v-.27c0-.09,0-.17.02-.26.07-1.3.26-2.66.56-4.04.31-1.38.71-2.77,1.21-4.13.5-1.36,1.08-2.71,1.72-4.01.65-1.31,1.37-2.55,2.13-3.7.77-1.17,1.6-2.25,2.45-3.22.87-.98,1.77-1.83,2.68-2.53.91-.7,1.85-1.26,2.78-1.66.94-.4,1.88-.6,2.81-.6,1.07,0,2.11.29,3.1.88.99.58,1.93,1.53,2.79,2.82.2.3.34.61.39.92.05.31.08.59.08.85,0,.64-.16,1.16-.47,1.54-.32.38-.7.58-1.14.58-.41,0-.79-.21-1.13-.63-.32-.39-.67-.94-1.07-1.69-.36-.63-.75-1.1-1.17-1.38-.42-.28-.88-.42-1.37-.42-.77,0-1.62.33-2.5.98-.9.66-1.81,1.54-2.69,2.63-.89,1.09-1.76,2.35-2.57,3.75-.82,1.4-1.55,2.85-2.18,4.32-.63,1.46-1.13,2.93-1.5,4.36-.37,1.42-.56,2.71-.56,3.84,0,.38.03.77.08,1.16.05.4.15.75.28,1.06.14.31.32.57.55.76.23.19.5.29.86.29.4,0,.87-.14,1.39-.41.54-.28,1.1-.66,1.66-1.11.57-.46,1.16-.98,1.74-1.57.58-.58,1.13-1.17,1.63-1.77.51-.61.96-1.19,1.34-1.72.39-.54.68-1.02.86-1.42l1.6-4.8h0c.2-.54.48-.93.82-1.17.34-.23.69-.35,1.05-.35.17,0,.35.03.53.09.18.06.34.16.48.28.14.13.25.29.33.5.08.2.12.43.12.69,0,.66-.06,1.29-.17,1.87-.12.57-.27,1.14-.44,1.69-.18.56-.39,1.12-.6,1.65-.23.58-.44,1.16-.63,1.72v.02s-.02.01-.02.01c-.02.03-.08.15-.23.61-.12.37-.27.83-.44,1.36-.19.59-.37,1.2-.56,1.83-.22.74-.45,1.49-.62,2.07-.21.68-.41,1.37-.61,2.07-.21.72-.38,1.32-.53,1.83-.17.61-.29,1.04-.39,1.37-.11.39-.17.59-.19.66-.06.22-.15.48-.28.75-.13.27-.28.53-.46.78-.18.25-.38.46-.6.62-.23.17-.47.26-.72.26Zm1.54-10.78l-.19.59c-.2.61-.43,1.32-.7,2.18-.29.92-.52,1.67-.72,2.35-.25.83-.43,1.48-.58,2.03-.16.59-.24.99-.25,1.2h0c-.01.11-.02.21-.02.3v.29c0,.62.08,1.05.23,1.28.14.21.37.31.69.31.19,0,.38-.07.56-.21.2-.15.38-.34.54-.57.17-.23.31-.48.44-.74.12-.26.21-.49.27-.7h0c.03-.09.11-.38.19-.66.09-.33.21-.76.39-1.37.14-.51.32-1.11.53-1.83.2-.69.41-1.39.61-2.07.17-.57.4-1.32.62-2.06.19-.63.37-1.24.56-1.83.17-.53.32-.99.44-1.36.15-.45.22-.6.26-.66.19-.56.4-1.14.63-1.72.21-.53.41-1.08.59-1.64.18-.54.32-1.1.44-1.66.11-.56.17-1.17.17-1.82,0-.23-.03-.43-.1-.6-.07-.17-.16-.3-.27-.4h0c-.11-.1-.24-.18-.38-.23-.15-.05-.29-.08-.44-.08-.3,0-.61.1-.9.3-.29.2-.53.55-.72,1.04l-1.61,4.81h0c-.2.42-.49.9-.89,1.47-.38.54-.83,1.12-1.35,1.74-.51.6-1.06,1.2-1.65,1.79-.59.59-1.18,1.12-1.76,1.58-.58.46-1.15.85-1.7,1.14-.56.29-1.07.44-1.51.44-.41,0-.76-.12-1.03-.35-.26-.22-.47-.51-.62-.85-.15-.33-.25-.71-.3-1.13-.05-.4-.08-.8-.08-1.19,0-1.15.19-2.47.56-3.91.37-1.44.88-2.92,1.52-4.39.63-1.48,1.37-2.94,2.19-4.35.82-1.4,1.69-2.68,2.59-3.78.9-1.1,1.82-2,2.74-2.67.93-.68,1.83-1.03,2.66-1.03.54,0,1.05.15,1.51.46.46.3.88.8,1.26,1.47h0c.4.73.74,1.27,1.05,1.65.29.36.6.54.92.54.37,0,.67-.16.94-.48.27-.33.41-.79.41-1.37,0-.25-.03-.51-.08-.81-.05-.27-.16-.55-.35-.82-.84-1.26-1.75-2.18-2.7-2.74-.95-.56-1.95-.84-2.97-.84-.89,0-1.8.2-2.7.58-.91.39-1.83.94-2.73,1.63-.9.69-1.78,1.53-2.64,2.5-.85.96-1.67,2.03-2.43,3.19-.76,1.14-1.47,2.38-2.12,3.68-.64,1.29-1.22,2.63-1.71,3.98-.49,1.34-.89,2.72-1.2,4.09-.3,1.37-.49,2.72-.56,4.01h0c-.01.09-.02.16-.02.24v.27c0,.71.09,1.43.27,2.14.18.71.46,1.35.83,1.9.37.55.84,1.01,1.4,1.35.56.34,1.24.51,2.01.51.68,0,1.4-.17,2.14-.5.74-.33,1.5-.77,2.24-1.3.75-.54,1.48-1.15,2.18-1.81.7-.66,1.37-1.34,1.98-2.03l.41-.46Zm17.93,6.06c-.59,0-1.07-.2-1.44-.59-.37-.4-.55-1.04-.55-1.97,0-.45.05-.95.14-1.5-.22.34-.47.67-.75,1.01-.45.55-.98,1.06-1.56,1.51-.58.46-1.24.83-1.97,1.11-.72.28-1.52.43-2.38.43-.39,0-.77-.05-1.13-.15-.37-.1-.7-.28-.97-.52-.28-.24-.51-.57-.67-.98-.17-.4-.25-.91-.25-1.51,0-.02,0-.06.06-.51v-.12c.06-.41.21-1.06.46-1.92.25-.86.62-1.96,1.15-3.37.52-1.37,1.25-3.06,2.2-5.02.25-.53.54-.93.88-1.16.34-.24.71-.36,1.1-.36.17,0,.35.03.54.08.19.05.36.13.52.24.17.11.3.26.4.43.1.18.16.38.16.61,0,.15-.02.29-.06.42-.06.24-.18.55-.38.94-.18.36-.4.78-.66,1.29-.28.54-.54,1.05-.8,1.56-.28.56-.54,1.14-.78,1.73-.24.59-.45,1.21-.62,1.82-.17.61-.27,1.21-.29,1.78,0,.22.05.43.16.61.09.16.24.24.46.24.72,0,1.41-.24,2.06-.71.66-.48,1.29-1.08,1.86-1.8.57-.72,1.09-1.51,1.55-2.33.48-.86.86-1.61,1.16-2.29h0c.21-.46.41-.95.57-1.48.17-.53.35-1.03.55-1.49.2-.46.43-.85.69-1.16.28-.33.63-.5,1.05-.5.46,0,.82.18,1.09.52.26.34.39.74.39,1.2,0,.26-.08.62-.24,1.06-.17.46-.37.96-.59,1.48-.22.51-.47,1.09-.77,1.77-.27.62-.53,1.26-.76,1.9-.23.63-.43,1.26-.58,1.89-.15.61-.23,1.18-.23,1.7,0,.42.19.61.63.61.33,0,.76-.12,1.28-.36.51-.24,1.07-.58,1.64-1.02.57-.43,1.15-.96,1.73-1.55.57-.59,1.09-1.24,1.53-1.92l.22-.34.2,3.23-.03.04c-.51.68-1.11,1.36-1.78,2.01-.68.65-1.38,1.24-2.1,1.74-.71.5-1.43.92-2.13,1.23-.7.31-1.35.47-1.92.47Zm-1.27-5.59l-.19.86c-.18.82-.27,1.54-.27,2.16,0,.85.16,1.45.48,1.79.32.34.73.51,1.25.51s1.14-.15,1.81-.45c.68-.3,1.38-.71,2.08-1.2.7-.5,1.4-1.07,2.06-1.71.65-.63,1.23-1.28,1.73-1.94l-.14-2.34c-.4.58-.85,1.13-1.34,1.64-.58.6-1.18,1.14-1.76,1.58-.59.45-1.16.8-1.69,1.05-.55.26-1.01.38-1.38.38-.58,0-.89-.3-.89-.87,0-.54.08-1.13.24-1.76.16-.64.36-1.28.59-1.92.23-.64.49-1.29.77-1.92.3-.68.55-1.25.77-1.77.22-.51.42-1.01.59-1.47.15-.41.23-.73.23-.97,0-.4-.11-.76-.34-1.04-.22-.28-.5-.42-.88-.42-.34,0-.62.13-.85.4-.24.29-.46.65-.65,1.09-.19.45-.38.94-.54,1.46-.17.54-.37,1.05-.58,1.51-.31.69-.69,1.45-1.17,2.31-.47.84-1,1.64-1.57,2.37-.58.74-1.23,1.36-1.91,1.85-.7.51-1.44.76-2.22.76-.31,0-.55-.13-.68-.37-.13-.22-.19-.47-.19-.74h0c.02-.6.12-1.22.3-1.84.17-.62.38-1.24.63-1.84.24-.6.51-1.18.79-1.75.26-.51.52-1.02.8-1.57.26-.51.48-.93.66-1.29.19-.37.31-.66.36-.88h0c.03-.11.05-.23.05-.36,0-.18-.04-.34-.12-.48-.08-.14-.19-.25-.32-.35-.14-.09-.28-.16-.45-.21-.16-.04-.32-.07-.47-.07-.34,0-.65.1-.95.31-.3.21-.56.57-.79,1.06-.94,1.96-1.67,3.64-2.19,5-.53,1.4-.9,2.5-1.14,3.35-.25.85-.39,1.49-.44,1.88v.12c-.04.27-.07.46-.07.49,0,.56.08,1.04.23,1.41.15.37.35.66.6.88.25.22.54.37.87.46.34.09.69.14,1.06.14.82,0,1.59-.14,2.28-.41.7-.27,1.34-.63,1.9-1.07.57-.44,1.08-.94,1.52-1.47.44-.54.81-1.07,1.11-1.6l.43-.77Zm-10.01,2.43h0s0,0,0,0Z"/>
      </g>
      <g>
        <path class="cls-1" d="m56.91,53.65c-.13.31-.25.68-.37,1.09-.12.42-.18.79-.18,1.11,0,.2.04.37.1.49s.2.18.4.18c.24,0,.54-.08.91-.26.36-.17.75-.4,1.17-.68.42-.28.86-.6,1.31-.96.45-.36.91-.74,1.36-1.12.45-.39.88-.78,1.29-1.17.41-.39.77-.75,1.1-1.07.09-.1.2-.16.33-.2.13-.04.24-.06.33-.06.23,0,.42.1.57.29.15.19.22.44.22.76,0,.29-.08.61-.24.96s-.44.7-.85,1.04c-.74.81-1.48,1.57-2.23,2.29s-1.49,1.36-2.23,1.91c-.74.55-1.48.99-2.21,1.32-.73.33-1.44.49-2.13.49-.47,0-.87-.07-1.18-.23s-.57-.35-.76-.61-.33-.57-.41-.92c-.08-.35-.12-.73-.12-1.12,0-.67.08-1.35.25-2.05.17-.7.36-1.35.6-1.93.4-1.06.81-2.12,1.23-3.17.41-1.05.79-2.01,1.14-2.88l5.23-13.19c.21-.53.49-.91.84-1.12.35-.22.71-.33,1.06-.33s.68.12.98.35c.29.23.44.61.44,1.12,0,.24-.05.51-.15.78-.1.27-.22.57-.37.88-.29.64-.63,1.42-1.03,2.35-.4.93-.82,1.94-1.28,3.03s-.92,2.23-1.4,3.4-.94,2.33-1.4,3.45c-.45,1.12-.88,2.18-1.28,3.18-.4,1-.74,1.87-1.03,2.61h0Z"/>
        <path class="cls-1" d="m55.54,60.2c-.49,0-.91-.08-1.24-.24-.34-.16-.61-.38-.81-.65-.2-.27-.34-.6-.43-.97-.08-.37-.12-.75-.12-1.15,0-.67.09-1.37.25-2.08.17-.71.37-1.37.6-1.95.43-1.14.83-2.18,1.23-3.17.44-1.12.82-2.07,1.14-2.88l5.23-13.19c.22-.56.52-.96.89-1.19.37-.23.75-.35,1.13-.35s.74.13,1.06.37c.33.26.49.67.49,1.23,0,.26-.05.54-.15.82-.1.28-.23.58-.37.89-.3.67-.64,1.46-1.02,2.35-.38.88-.8,1.87-1.28,3.03-.46,1.11-.93,2.25-1.4,3.4-.49,1.2-.96,2.36-1.4,3.45-.42,1.04-.85,2.11-1.28,3.18-.38.94-.72,1.82-1.03,2.61h0c-.13.31-.25.66-.37,1.08-.12.4-.17.76-.17,1.08,0,.18.03.32.09.43.02.03.06.12.28.12s.51-.08.85-.24c.36-.17.75-.39,1.16-.67.41-.27.85-.59,1.3-.96.44-.35.9-.73,1.35-1.12.45-.39.88-.78,1.28-1.16.41-.39.77-.75,1.09-1.07.11-.11.24-.19.38-.24.13-.04.26-.07.37-.07.27,0,.5.12.67.34.17.21.25.49.25.84,0,.3-.08.65-.25,1.02-.17.37-.46.74-.87,1.08-.72.79-1.47,1.56-2.23,2.29-.75.72-1.5,1.37-2.25,1.92-.74.55-1.49,1-2.23,1.33-.74.33-1.48.5-2.19.5Zm7.87-27.56c-.33,0-.66.1-.99.31-.32.2-.59.56-.79,1.06l-5.23,13.19c-.32.82-.7,1.76-1.14,2.88-.39.99-.79,2.03-1.23,3.17-.23.57-.42,1.22-.59,1.92-.16.69-.25,1.37-.25,2.02,0,.38.04.75.12,1.1.08.34.21.63.38.87.18.24.41.43.71.57.3.14.68.21,1.13.21.67,0,1.37-.16,2.08-.48.72-.33,1.46-.76,2.18-1.31.73-.55,1.48-1.19,2.22-1.9.75-.73,1.5-1.5,2.22-2.28h0s0-.01,0-.01c.39-.32.66-.66.81-1,.15-.34.23-.64.23-.91,0-.28-.07-.51-.2-.68-.12-.16-.28-.24-.47-.24-.08,0-.18.02-.29.05-.11.03-.2.09-.27.17-.32.33-.69.69-1.1,1.08-.4.38-.84.77-1.29,1.17-.46.4-.92.78-1.36,1.13-.46.37-.91.7-1.32.97-.42.28-.82.51-1.19.68-.38.18-.7.27-.96.27-.31,0-.45-.14-.51-.25-.08-.14-.12-.33-.12-.56,0-.34.06-.73.19-1.15.12-.43.25-.79.38-1.11.31-.79.65-1.67,1.03-2.61.42-1.07.85-2.14,1.28-3.18.44-1.08.91-2.25,1.4-3.45.47-1.15.94-2.3,1.4-3.41.48-1.15.9-2.14,1.28-3.03.38-.89.73-1.69,1.03-2.35h0c.15-.31.27-.6.37-.87.09-.26.14-.5.14-.73,0-.47-.13-.82-.39-1.02-.27-.21-.57-.32-.89-.32Z"/>
      </g>
      <g>
        <path class="cls-1" d="m81.37,49.95c.16-.11.31-.2.45-.27s.27-.1.4-.1c.25,0,.44.11.57.34.13.23.19.5.19.83,0,.35-.08.71-.23,1.08-.15.37-.39.67-.7.92-1.23,1.09-2.33,2.09-3.3,2.99-.97.9-1.88,1.67-2.74,2.32s-1.69,1.15-2.51,1.5c-.82.35-1.69.53-2.62.53-.88,0-1.55-.19-2.03-.57-.48-.38-.72-.91-.72-1.57v-.15s0-.11.02-.17c.05-.41.23-.88.53-1.41.31-.53.69-1.08,1.12-1.66s.9-1.15,1.4-1.74c.5-.59.95-1.14,1.37-1.67.42-.52.77-1,1.04-1.44s.42-.79.42-1.06c0-.16-.06-.29-.17-.39-.12-.1-.31-.14-.57-.14-.46,0-.93.12-1.42.36s-.97.56-1.45.96c-.48.4-.94.86-1.4,1.38s-.88,1.06-1.28,1.62-.76,1.12-1.09,1.69c-.33.57-.61,1.09-.84,1.57-.07.15-.17.36-.29.63s-.26.58-.41.92c-.15.34-.31.69-.48,1.05-.17.36-.32.7-.46,1.02-.14.32-.26.61-.37.86-.11.25-.19.43-.23.52-.06.12-.15.35-.29.7s-.28.74-.46,1.2c-.17.46-.35.94-.54,1.44-.19.51-.37.98-.53,1.43s-.31.84-.44,1.19-.21.57-.24.7c-.12.35-.25.69-.41,1-.15.31-.33.59-.53.83s-.43.43-.69.57c-.26.14-.55.21-.87.21-.42,0-.76-.1-1.03-.3-.27-.2-.41-.58-.41-1.13,0-.27.04-.55.1-.84s.16-.57.26-.85c.1-.28.21-.55.32-.82.11-.27.21-.52.3-.77.62-1.36,1.26-2.73,1.9-4.1.64-1.37,1.26-2.73,1.85-4.07.59-1.34,1.14-2.66,1.65-3.96.51-1.29.93-2.54,1.26-3.72.09-.24.22-.59.38-1.04s.34-.89.55-1.33c.21-.44.44-.81.7-1.13.26-.32.54-.48.84-.48.46,0,.79.11,1,.32s.31.52.31.93c0,.08-.01.21-.04.39s-.05.36-.09.56c-.04.2-.07.39-.11.56-.04.18-.08.31-.11.39.43-.46.89-.92,1.38-1.38.5-.46,1.01-.87,1.54-1.24.53-.37,1.07-.67,1.62-.9.55-.23,1.1-.35,1.66-.35.38,0,.76.05,1.13.16.37.11.71.27,1,.48s.53.48.72.8c.18.32.28.69.28,1.11,0,.56-.14,1.16-.42,1.79-.28.63-.64,1.27-1.06,1.91-.43.64-.89,1.27-1.38,1.87-.5.61-.96,1.16-1.39,1.66-.43.5-.79.92-1.09,1.27-.29.35-.45.58-.46.71,0,.16.05.3.15.4s.28.15.52.15c.2,0,.48-.11.86-.33.38-.22.91-.6,1.6-1.13s1.55-1.26,2.61-2.17c1.05-.9,2.35-2.05,3.89-3.42h0Z"/>
        <path class="cls-1" d="m58.57,70.08c-.44,0-.81-.11-1.1-.32-.31-.22-.46-.64-.46-1.24,0-.28.04-.57.11-.87.07-.28.16-.57.26-.86.11-.3.22-.57.32-.82.11-.26.21-.52.3-.76h0c.6-1.32,1.22-2.66,1.9-4.11.66-1.4,1.28-2.77,1.85-4.07.57-1.3,1.13-2.63,1.65-3.95.5-1.29.93-2.54,1.26-3.71h0c.1-.27.23-.63.38-1.05.16-.45.35-.9.56-1.34.21-.44.45-.83.72-1.16.28-.35.6-.53.94-.53.49,0,.86.12,1.09.36.23.24.35.58.35,1.02,0,.09-.01.22-.04.41-.02.16-.05.35-.09.57-.03.16-.06.31-.09.46.32-.33.66-.66,1.03-1,.5-.46,1.03-.89,1.55-1.25.53-.37,1.09-.68,1.65-.91.57-.24,1.14-.36,1.71-.36.39,0,.78.06,1.17.17.39.11.74.28,1.04.5.31.22.56.5.75.84.19.34.29.74.29,1.18,0,.57-.15,1.19-.43,1.84-.28.63-.64,1.28-1.07,1.93-.43.65-.9,1.28-1.39,1.88-.52.64-.98,1.18-1.39,1.66-.4.46-.77.89-1.09,1.27-.37.44-.42.59-.43.63,0,.12.04.22.12.3.07.08.22.11.43.11.12,0,.35-.05.8-.31.38-.21.91-.59,1.58-1.12.69-.54,1.56-1.27,2.6-2.16,1.05-.9,2.36-2.05,3.89-3.42h0s0-.01,0-.01c.16-.11.31-.2.46-.28.15-.08.31-.12.46-.12.3,0,.53.14.68.4.14.24.21.54.21.89,0,.37-.08.75-.24,1.13-.16.38-.41.71-.74.97-1.22,1.08-2.33,2.09-3.29,2.98-.97.9-1.9,1.69-2.75,2.33-.86.65-1.71,1.16-2.54,1.52-.83.36-1.73.54-2.68.54-.9,0-1.61-.2-2.11-.6-.51-.41-.77-.97-.77-1.68v-.15c0-.05,0-.12.02-.19.05-.42.23-.91.55-1.46.31-.53.69-1.1,1.13-1.67.43-.56.9-1.15,1.4-1.74.46-.55.91-1.09,1.37-1.66.42-.52.77-1.01,1.04-1.43.26-.41.39-.75.39-.99,0-.12-.04-.22-.12-.29-.09-.07-.25-.11-.49-.11-.44,0-.9.12-1.37.35-.48.23-.96.55-1.42.94-.47.4-.94.86-1.38,1.37-.45.52-.88,1.06-1.27,1.61-.4.56-.76,1.13-1.08,1.68-.34.58-.61,1.09-.83,1.55-.07.15-.17.36-.29.63-.12.25-.25.54-.41.92-.15.33-.3.68-.48,1.05-.18.39-.33.72-.45,1.02l-.13.3c-.09.2-.17.39-.24.56-.12.29-.2.45-.23.52-.05.11-.14.32-.28.69-.12.31-.25.66-.41,1.07l-.15.4c-.14.38-.29.76-.44,1.17-.23.61-.39,1.04-.53,1.43-.17.45-.32.85-.44,1.19-.12.33-.2.56-.24.69h0c-.12.36-.25.7-.41,1.02-.16.32-.34.61-.55.86-.21.25-.46.45-.73.6-.28.15-.59.23-.93.23Zm-.33-4.78c-.09.25-.19.51-.3.77-.1.25-.21.52-.32.81-.1.28-.19.57-.25.83-.07.28-.1.55-.1.81,0,.51.12.86.35,1.03.25.18.56.27.95.27.3,0,.57-.07.81-.2.25-.14.46-.31.65-.54.19-.23.37-.5.52-.8.15-.31.29-.64.4-.98.04-.13.12-.37.25-.7.13-.34.27-.73.44-1.18.15-.39.31-.82.53-1.43.15-.41.3-.8.44-1.17l.15-.4c.16-.41.29-.76.41-1.07.14-.37.23-.59.29-.7.03-.07.11-.24.23-.52.07-.17.16-.36.24-.56l.13-.3c.13-.3.28-.64.46-1.03.17-.37.33-.72.48-1.05.17-.38.3-.67.41-.92.13-.27.23-.48.29-.63h0c.22-.47.5-.99.84-1.58.32-.56.69-1.13,1.09-1.7.39-.55.83-1.1,1.29-1.63.46-.52.93-.99,1.41-1.39.48-.4.98-.73,1.48-.98.51-.25,1-.37,1.48-.37.3,0,.51.06.65.17.14.12.22.29.22.49,0,.3-.14.67-.44,1.13-.28.44-.62.91-1.05,1.45-.46.57-.91,1.12-1.38,1.67-.5.59-.97,1.18-1.39,1.73-.43.57-.81,1.12-1.11,1.64-.3.52-.48.97-.52,1.36h0c-.01.07-.02.12-.02.16v.15c0,.63.22,1.11.67,1.47.45.36,1.11.54,1.95.54.91,0,1.78-.17,2.57-.52.81-.35,1.64-.85,2.48-1.49.84-.64,1.76-1.42,2.73-2.31.96-.9,2.07-1.9,3.3-2.99h0c.3-.24.51-.52.66-.87.15-.35.22-.69.22-1.03,0-.3-.06-.56-.17-.76-.1-.18-.25-.27-.46-.27-.11,0-.22.03-.34.09-.14.07-.28.15-.43.25-1.54,1.37-2.84,2.52-3.89,3.42-1.04.9-1.92,1.63-2.61,2.17-.68.54-1.23.92-1.61,1.14-.41.23-.71.34-.93.34-.29,0-.49-.06-.61-.19-.13-.13-.19-.3-.19-.49h0c.01-.12.07-.3.49-.79.32-.38.68-.8,1.09-1.27.41-.48.87-1.02,1.39-1.65.48-.59.95-1.22,1.37-1.86.42-.64.78-1.27,1.05-1.89.27-.61.41-1.2.41-1.74,0-.4-.08-.75-.26-1.05-.17-.3-.4-.56-.68-.76-.28-.2-.6-.35-.96-.46-.36-.11-.73-.16-1.09-.16-.53,0-1.07.11-1.61.34-.54.23-1.08.53-1.6.89-.52.36-1.03.77-1.52,1.23-.51.47-.96.92-1.37,1.37l-.49.54.27-.67c.03-.08.07-.2.11-.37.04-.17.07-.36.11-.56.04-.21.06-.4.09-.56.02-.17.03-.29.03-.37,0-.37-.09-.65-.27-.84-.18-.18-.49-.28-.91-.28-.26,0-.5.15-.73.43-.25.31-.48.68-.68,1.11-.21.43-.39.88-.55,1.32-.15.42-.28.78-.38,1.04-.33,1.17-.75,2.43-1.26,3.73-.52,1.33-1.08,2.66-1.65,3.96-.57,1.3-1.19,2.67-1.86,4.07-.68,1.45-1.3,2.79-1.9,4.09Z"/>
      </g>
    </g>
  </g>
</svg>