<?xml version="1.0" encoding="UTF-8"?>
<svg id="Layer_2" data-name="Layer 2" xmlns="http://www.w3.org/2000/svg" viewBox="0 0 88.09 100">
  <defs>
    <style>
      .cls-1 {
        fill: #fff;
      }

      .cls-2 {
        fill: #e34f26;
      }

      .cls-3 {
        fill: #ebebeb;
      }

      .cls-4 {
        fill: #ef652a;
      }
    </style>
  </defs>
  <g id="Layer_1-2" data-name="Layer 1">
    <g>
      <path class="cls-2" d="m8.01,89.84L0,0h88.09l-8.01,89.84-36.13,10.16"/>
      <path class="cls-4" d="m44.14,92.19l29.1-8.01,6.84-76.95h-35.94"/>
      <path class="cls-3" d="m44.14,40.62h-14.65l-.98-11.33h15.63v-10.94h-27.73l2.93,33.4h24.8v-11.13Zm-.2,28.71l-12.3-3.32-.78-8.79h-10.94l1.37,17.38,22.66,6.25v-11.52Z"/>
      <path class="cls-1" d="m43.95,40.62v11.13h13.67l-1.37,14.26-12.3,3.32v11.52l22.66-6.25,3.12-33.98h-25.78Zm0-22.27v10.94h26.76l.98-10.94h-27.73Z"/>
    </g>
  </g>
</svg>