<?xml version="1.0" encoding="UTF-8"?>
<svg id="Layer_2" data-name="Layer 2" xmlns="http://www.w3.org/2000/svg" viewBox="0 0 100 97.5">
  <defs>
    <style>
      .cls-1 {
        fill: #49021f;
      }

      .cls-2 {
        fill: #f36;
      }
    </style>
  </defs>
  <g id="Layer_1-2" data-name="Layer 1">
    <g>
      <g id="Surfaces">
        <g id="Publishing_Surface" data-name="Publishing Surface">
          <g id="Outline_no_shadow" data-name="Outline no shadow">
            <path class="cls-1" d="m17.71,0h64.58c9.79,0,17.71,7.92,17.71,17.71v62.08c0,9.79-7.92,17.71-17.71,17.71H17.71c-9.79,0-17.71-7.92-17.71-17.71V17.71C0,7.92,7.92,0,17.71,0Z"/>
          </g>
        </g>
      </g>
      <g id="Id">
        <path class="cls-2" d="m36.33,25.5v42.75c0,.46-.21.67-.58.67h-8.17c-.38,0-.54-.21-.54-.67V25.5c0-.38.21-.54.58-.54h8.12c.25-.04.5.12.54.42.04.04.04.08.04.13Z"/>
        <path class="cls-2" d="m60.33,69.58c-3.08.04-6.17-.58-8.96-1.88-2.63-1.21-4.79-3.21-6.29-5.67-1.54-2.54-2.29-5.71-2.29-9.5-.04-3.08.75-6.12,2.29-8.79,1.58-2.71,3.88-4.96,6.63-6.46,2.92-1.63,6.42-2.42,10.54-2.42.21,0,.5,0,.88.04.37.04.79.04,1.29.08v-13.17c0-.29.13-.46.42-.46h8.46c.21-.04.37.12.42.29v39.75c0,.75.04,1.58.08,2.5.08.88.13,1.71.17,2.42,0,.29-.13.54-.42.67-2.17.92-4.46,1.58-6.79,2-2.08.37-4.25.58-6.42.58Zm4.08-8.33v-18.33c-.37-.08-.75-.17-1.12-.21-.46-.04-.92-.08-1.38-.08-1.62,0-3.25.33-4.71,1.08-1.42.71-2.63,1.75-3.54,3.08-.92,1.33-1.38,3.12-1.38,5.29-.04,1.46.21,2.92.71,4.29.42,1.12,1.04,2.13,1.88,2.96.79.75,1.75,1.33,2.83,1.67,1.12.37,2.29.54,3.46.54.62,0,1.21-.04,1.75-.08.54.04,1.04-.04,1.5-.21Z"/>
      </g>
    </g>
  </g>
</svg>