<?xml version="1.0" encoding="UTF-8"?>
<svg id="Layer_2" data-name="Layer 2" xmlns="http://www.w3.org/2000/svg" viewBox="0 0 100 100">
  <defs>
    <style>
      .cls-1 {
        fill: #f7df1e;
      }
    </style>
  </defs>
  <g id="Layer_1-2" data-name="Layer 1">
    <g>
      <path class="cls-1" d="m0,0h100v100H0V0Z"/>
      <path d="m26.29,83.57l7.65-4.63c1.48,2.62,2.82,4.83,6.04,4.83s5.03-1.21,5.03-5.91v-31.95h9.4v32.09c0,9.73-5.71,14.16-14.03,14.16-7.52,0-11.88-3.89-14.1-8.59"/>
      <path d="m59.52,82.56l7.65-4.43c2.01,3.29,4.63,5.71,9.26,5.71,3.89,0,6.38-1.95,6.38-4.63,0-3.22-2.55-4.36-6.85-6.24l-2.35-1.01c-6.78-2.89-11.28-6.51-11.28-14.16,0-7.05,5.37-12.42,13.76-12.42,5.97,0,10.27,2.08,13.36,7.52l-7.32,4.7c-1.61-2.89-3.36-4.03-6.04-4.03s-4.5,1.75-4.5,4.03c0,2.82,1.75,3.96,5.77,5.71l2.35,1.01c7.99,3.42,12.49,6.91,12.49,14.77,0,8.46-6.65,13.09-15.57,13.09s-14.37-4.16-17.12-9.6"/>
    </g>
  </g>
</svg>