<?xml version="1.0" encoding="UTF-8"?>
<svg id="Layer_2" data-name="Layer 2" xmlns="http://www.w3.org/2000/svg" viewBox="0 0 87.88 50.1">
  <defs>
    <style>
      .arrow-left,
      .arrow-right {
        fill: #1f6feb;
      }

      body.dark svg g#hf {
        fill: white!important;
      }
    </style>
  </defs>
  <g>
    <g>
      <polygon class="arrow-left" points="7.03 28.47 13.74 38.38 6.71 38.38 0 28.47 6.71 18.57 13.74 18.57 7.03 28.47"/>
      <polygon class="arrow-right" points="80.85 14.41 74.14 4.51 81.17 4.51 87.88 14.41 81.17 24.32 74.14 24.32 80.85 14.41"/>
      <g id="hf">
        <path d="m48.9,21.59c-1.28,1.87-3.68,5.24-5.01,7.12.03,0,11.5,0,16.1,0h3.79c-1.24,1.92-3.27,5.13-4.6,7.18-5.76,0-14.78-.04-20.31-.06-2.83,4.07-7.05,10.08-9.99,14.27-1.36-1.87-3.67-4.84-5.21-6.89,3.05-4.31,6.83-9.76,9.75-13.9,1.61-2.28,3.87-5.33,5.56-7.71-2.74,0-7.37-.11-10.34-.14-2.99,4.28-6.99,10.13-9.98,14.4-1.39-1.96-3.56-4.87-5.13-7.01,1.84-2.65,4.35-6.17,6.1-8.66,2.1-2.98,4.21-5.95,6.31-8.93,2.31-3.27,5.48-7.73,7.92-11.21,2.76,0,7.12,0,9.91,0-1.73,2.49-4,5.86-5.55,8.07-1.2,1.7-3.16,4.39-4.51,6.31,3.68,0,40.45,0,40.45,0-.77,1.09-3.09,4.73-4.63,7.2-5.69-.04-15.08-.02-20.62-.02Z"/>
        <path d="m64.19.03c-1.68,2.36-4,5.52-5.48,7.62-.9,1.28-2.51,3.56-3.59,5.13-3.12,0-7.68,0-10.12,0,.75-1.07,1.72-2.39,2.39-3.35,1.71-2.43,4.69-6.53,6.72-9.42,2.66.04,7.19.04,10.09.03Z"/>
      </g>
    </g>
  </g>
</svg>