<?xml version="1.0" encoding="UTF-8"?>
<svg id="Layer_2" data-name="Layer 2" xmlns="http://www.w3.org/2000/svg" viewBox="0 0 100 100">
  <defs>
    <style>
      .cls-1 {
        fill: #fcb03f;
      }

      .cls-2 {
        fill: #fff;
      }

      .cls-3 {
        fill: #e3dddb;
      }

      .cls-4 {
        fill: #c4b6a1;
      }

      .cls-5 {
        fill: #df0067;
      }

      .cls-6 {
        fill: #525353;
      }

      .cls-7 {
        fill: #bbbcbd;
      }

      .cls-8 {
        fill: #676a6a;
      }

      .cls-9 {
        fill: #786453;
      }

      .cls-10 {
        fill: #909393;
      }

      .cls-11 {
        fill: #a5dbe8;
      }

      .cls-12 {
        fill: #8b7460;
      }

      .cls-13 {
        fill: #aa9678;
      }

      .cls-14 {
        fill: #9f2254;
      }
    </style>
  </defs>
  <g id="Layer_1-2" data-name="Layer 1">
    <g>
      <path class="cls-11" d="m32.41,76.73c.8-.36,1.61-.68,2.42-.99.92-.35,1.85-.67,2.79-.96,1.17-.35,2.35-.67,3.55-.93,1.62-.34,3.25-.6,4.9-.76-.92,2.9-1.94,5.79-3.05,8.66.05.56.07,1.11.09,1.67,2.23-.44,4.53-.67,6.88-.67s4.66.24,6.88.67c.01-.56.04-1.12.09-1.67-1.11-2.87-2.13-5.76-3.05-8.66,1.65.16,3.28.41,4.9.76,1.2.25,2.38.57,3.55.93.94.28,1.87.61,2.79.96.82.31,1.63.63,2.42.99,5.67,2.52,10.83,6.27,15.07,11.12,10.62-9.17,17.35-22.72,17.35-37.85C100,22.39,77.61,0,50,0S0,22.39,0,50c0,15.13,6.73,28.68,17.35,37.85,4.24-4.86,9.4-8.6,15.07-11.12"/>
      <path class="cls-6" d="m67.59,76.73l3.1,10.67.88.04c.57,0,.97.15.97.72,0,.95.05,2.02.14,2.95.77.66,1.72,1.4,2.43,2.12,2.68-1.56,5.2-3.36,7.54-5.38-4.24-4.86-9.4-8.6-15.07-11.12"/>
      <path class="cls-6" d="m61.52,76.62l3.64-.88c-.92-.35-1.85-.67-2.79-.96-1.17-.35-2.35-.67-3.55-.93-1.62-.34-3.25-.6-4.9-.76.92,2.9,1.94,5.79,3.05,8.66-.05.56-.07,1.11-.09,1.67,2.58.51,5.12,1.39,7.47,2.43l-2.83-9.24"/>
      <path d="m24.89,93.23c.58.34,1.17.67,1.76.98.21-1,.54-2.39.64-3.42-.77.66-1.69,1.72-2.41,2.44"/>
      <path d="m64.29,85.77c-2.35-1.04-4.83-1.83-7.41-2.34-2.23-.44-4.53-.67-6.88-.67s-4.66.24-6.88.67c-2.58.51-5.28,1.28-7.62,2.32l-.25,1.56h29.51l-.47-1.53"/>
      <path class="cls-6" d="m27.2,91.09c.09-.93.16-1.76.16-2.71,0-.57.39-.94.96-.94l.94-.03,3.16-10.68c-5.67,2.52-10.83,6.27-15.07,11.12,2.34,2.02,4.86,3.82,7.54,5.38.71-.72,1.46-1.41,2.23-2.07"/>
      <path d="m73.07,92.99c.2,1.02.25,1.22.28,1.23.6-.32,1.18-.65,1.76-.98-.71-.72-1.48-1.43-2.25-2.09l.21,1.85"/>
      <path class="cls-13" d="m64.29,85.77l.47,1.53h6.04l-3.21-10.58c-.8-.36-1.61-.68-2.42-.99l-3.64.88,2.77,9.15"/>
      <path class="cls-4" d="m29.31,89.44s.06-.04.09-.07h-.09s0,.04,0,.07"/>
      <path class="cls-13" d="m70.68,89.37h-.09s.06.04.09.07c0-.02,0-.04,0-.07"/>
      <path class="cls-13" d="m70.58,89.22l-20.62.02.04,10.76c7.67,0,14.94-1.73,21.44-4.82-.42-1.86-.47-3.87-.54-5.83-.03-.02-.33-.13-.33-.13"/>
      <path class="cls-4" d="m49.97,89.29s-20.74-.03-20.77,0c-.07,1.95-.47,4.27-.64,5.89,6.5,3.09,13.77,4.82,21.44,4.82v-10.68s-.03-.03-.03-.03"/>
      <path class="cls-9" d="m50,88.34h0v1.03h0v-1.03Z"/>
      <path class="cls-6" d="m64.32,80.17c-.15-.17-.31-.36-.47-.57.16.21.32.4.47.57"/>
      <path class="cls-13" d="m65.47,81.31s0,.01.01.03c0-.02-.01-.03-.01-.03,0,0-.51-.4-1.15-1.14.64.74,1.15,1.14,1.15,1.14"/>
      <path class="cls-2" d="m82.76,50.47s0,0,0-.01c0,0,0,0,0,.01"/>
      <path class="cls-7" d="m82.76,50.45s0,0,0-.01c0,0,0,0,0,.01"/>
      <path class="cls-8" d="m82.7,49.68s0,.03,0,.04c0,0,0,.02,0,.02h0c.02.19.03.39.04.59,0,.04,0,.07,0,.11,0,0,0,0,0,.01,0,0,0,0,0,.01,0,.04,0,.08,0,.12,0,.2-.01.39-.04.58h0s0,.02,0,.03c0,.02,0,.03,0,.04-.03.2-.06.4-.11.59,0,0,0,0,0,0h0s0,0,0,0c0,0,0,0,0,0h0s1.31-1.37,1.31-1.37l-1.32-1.38s0,0,0,0c.05.19.09.39.11.6"/>
      <path d="m82.7,51.24s.01-.05.01-.08c.02-.19.03-.38.04-.58,0-.04,0-.09,0-.13,0-.04,0-.08,0-.12,0-.2-.01-.4-.04-.59,0-.02,0-.04-.01-.06-.03-.21-.07-.41-.11-.6-.02-.07-.04-.13-.06-.19-.12-.39-.28-.74-.47-1.02-.03-.04-.05-.08-.08-.11-.05-.07-.11-.14-.16-.2-.08-.09-.17-.17-.26-.24-.03-.03-.07-.04-.11-.07-.08-.05-.16-.09-.24-.13-.04-.01-.07-.03-.11-.04-.12-.04-.24-.06-.36-.06s-.24.03-.36.06c-.04.01-.07.03-.11.04-.08.03-.16.08-.24.13-.03.02-.07.04-.11.07-.09.07-.18.15-.26.24-.06.06-.11.13-.16.2-.03.04-.05.07-.08.11-.19.29-.35.63-.47,1.02,0,.02-.01.03-.01.05-.05.18-.09.37-.13.56-.01.06-.02.12-.03.18-.03.22-.05.44-.05.68,0,.03,0,.06,0,.09h0c0,1.9.9,3.45,2.01,3.45.19,0,.38-.05.55-.14.03-.01.06-.03.08-.04.07-.04.14-.09.21-.14.04-.03.07-.07.11-.1.09-.08.17-.18.25-.28.06-.07.11-.15.16-.23.03-.05.06-.11.09-.16.06-.1.11-.21.16-.33.02-.04.04-.08.05-.12.06-.16.11-.33.16-.51.05-.19.08-.39.11-.59h0Zm-1.88-1.25c-.42,0-.75-.58-.75-1.29s.34-1.29.75-1.29.75.58.75,1.29-.34,1.29-.75,1.29h0Z"/>
      <path class="cls-2" d="m80.82,47.41c-.42,0-.75.58-.75,1.29s.34,1.29.75,1.29.75-.58.75-1.29-.34-1.29-.75-1.29"/>
      <path class="cls-10" d="m78.96,48.88h0c.12-.39.28-.74.47-1.02.03-.04.05-.08.08-.11.05-.07.1-.14.16-.2.08-.09.17-.17.26-.24.03-.03.07-.04.11-.07.08-.05.16-.09.24-.13.04-.01.07-.03.11-.04.12-.04.24-.06.36-.06s.24.03.36.06c.04.01.07.03.11.04.08.03.16.08.24.13.04.02.07.04.11.07.09.07.18.15.26.24.06.06.11.13.16.2.03.04.05.07.08.11.19.29.35.63.47,1.02h0s-1.78-8.15-1.78-8.15l-1.78,8.15h0"/>
      <path d="m57.15,50.38c0-.16-.01-.33-.03-.49,0,0,0,0,0,0-.02-.16-.04-.31-.08-.46,0,0,0,0,0-.01-.03-.15-.07-.3-.12-.44,0,0,0,0,0,0-.05-.14-.1-.29-.16-.43,0,0,0,0,0,0-.06-.14-.13-.27-.21-.41-.23-.4-.51-.76-.85-1.08-.42-.4-.92-.73-1.46-.95,0,0,0,0-.01,0-.27-.11-.55-.2-.84-.25,0,0-.01,0-.02,0-.29-.06-.59-.09-.9-.09s-.6.03-.89.09c-.01,0-.02,0-.03,0-.29.06-.56.14-.83.25,0,0-.01,0-.02,0-.27.11-.53.24-.77.4,0,0,0,0,0,0-.24.16-.47.34-.68.53v.02s-.02,0-.02,0c-.34.32-.62.69-.86,1.09,0,0,0,0,0,.01-.07.12-.13.25-.19.38,0,.01-.01.03-.02.04-.05.12-.1.25-.14.37,0,.03-.02.05-.03.07-.04.12-.07.24-.1.36,0,.04-.02.07-.03.1-.02.12-.04.24-.06.37,0,.04-.01.07-.02.11-.02.16-.03.33-.03.49,0,.31.03.62.09.91,0,0,0,.01,0,.02.06.29.15.58.26.85,0,0,0,0,0,.01.23.55.55,1.05.96,1.47.32.33.69.62,1.09.85,0,0,0,0,0,0,.13.07.26.14.39.19.01,0,.02.01.03.02.12.05.25.1.38.14.02,0,.04.02.06.02.12.04.24.07.36.1.03,0,.07.02.1.03.12.02.24.04.37.06.04,0,.07.01.11.02.16.02.32.03.49.03.65,0,1.27-.13,1.83-.37.28-.12.55-.26.8-.43.5-.34.93-.77,1.27-1.27.17-.25.32-.52.43-.8.24-.56.37-1.18.37-1.83,0-.01,0-.02,0-.03,0-.01,0-.02,0-.04h0Zm-4.71-.55c-.98,0-1.77-.79-1.77-1.77s.79-1.77,1.77-1.77,1.77.79,1.77,1.77-.79,1.77-1.77,1.77h0Z"/>
      <path class="cls-2" d="m52.44,46.29c-.98,0-1.77.79-1.77,1.77s.79,1.77,1.77,1.77,1.77-.79,1.77-1.77-.79-1.77-1.77-1.77"/>
      <path class="cls-7" d="m49.2,47.03h.02s0-.02,0-.02l3.24-9.92v-2.32s0-.03,0-.03c-1.81-.37-3.66-.57-5.57-.57-.63,0-1.26.03-1.89.07-.09,0-.18.01-.27.02-3.26.25-6.46,1.1-9.43,2.45-2.55,1.16-4.91,2.69-7.04,4.51h0s0,0,0,0c-.57.49-1.12,1-1.65,1.52-.1.1-.2.19-.3.29-.5.51-.99,1.03-1.46,1.57-.1.12-.2.24-.3.36-.47.56-.93,1.13-1.37,1.71-.04.05-.07.1-.11.15-.42.57-.81,1.15-1.19,1.74-.07.12-.15.23-.22.35-.31.49-.6.99-.88,1.5h14.78l13.65-3.37"/>
      <path class="cls-3" d="m61.68,45.92c.03-.39.05-.77.07-1.16.03-.52.05-1.05.06-1.57,0-.41,0-.82,0-1.22,0-.12,0-.24,0-.35-.01-1.05-.05-2.1-.12-3.15,0,0,0,0,0,0,0,0,0,0,0,0,0,0-.02-.01-.03-.02-.01,0-.02-.01-.05-.03-.19-.11-.67-.38-1.09-.62,0,0-.02-.01-.03-.02-.11-.06-.21-.12-.31-.17,0,0,0,0,0,0-.08-.05-.15-.08-.21-.12-.01,0-.03-.02-.04-.02-.07-.04-.12-.07-.15-.08-.68-.35-1.37-.68-2.08-.98-1.68-.71-3.94-1.33-5.22-1.63v2.35l3.22,9.94h0c.33.32.62.69.85,1.09h0c.08.13.14.27.21.41,0,0,0,0,0,0,.06.14.12.28.16.43,0,0,0,0,0,0,.05.14.09.29.12.44,0,0,0,0,0,.01.03.15.06.31.08.46,0,0,0,0,0,0,.02.16.03.32.03.49v.03h3.95c.27-1.44.45-2.9.57-4.37,0-.04,0-.08.01-.12"/>
      <path class="cls-1" d="m66.83,42.4s0,0,0,.01c0,0,0,0,0-.01"/>
      <path class="cls-10" d="m49.22,47.01h0c.21-.2.44-.38.68-.53,0,0,0,0,0,0,.24-.16.5-.29.77-.4,0,0,.01,0,.02,0,.27-.11.54-.19.83-.25.01,0,.02,0,.03,0,.29-.06.58-.09.89-.09s.61.03.9.09c0,0,.01,0,.02,0,.29.06.57.14.84.25,0,0,0,0,.01,0,.55.22,1.04.55,1.46.95h0s-3.22-9.95-3.22-9.95l-3.24,9.92"/>
      <path class="cls-8" d="m48.08,52.22c-.11-.27-.2-.56-.26-.85,0,0,0-.01,0-.02-.06-.29-.09-.6-.09-.91,0-.17,0-.33.03-.49,0-.04.01-.07.02-.11.02-.12.03-.25.06-.37,0-.03.02-.07.03-.1.03-.12.06-.24.1-.36,0-.02.02-.05.03-.07.04-.13.09-.25.14-.37,0-.01.01-.03.02-.04.06-.13.12-.26.19-.38,0,0,0,0,0-.01.23-.4.52-.77.86-1.09l-13.65,3.37h-.03l13.52,3.3c-.41-.42-.73-.92-.96-1.47,0,0,0,0,0-.01"/>
      <path class="cls-3" d="m78.79,49.67c0-.06.02-.12.03-.18.03-.19.07-.38.13-.56,0-.02,0-.04.01-.06l1.78-8.15v-4.65c-1.46-1.2-3.01-1.86-4.64-1.86-2.05,0-3.96,1.13-5.39,2.53-1.56,1.53-2.77,3.46-3.75,5.4-.04.09-.09.18-.14.27.3.26.6.53.89.79.67.61,1.32,1.23,1.96,1.87.3.3.59.6.89.9.31.32.63.64.93.96.4.42.79.84,1.18,1.26.16.18.33.36.49.54.47.52.93,1.04,1.39,1.57h0c.08.08.13.14.15.16h4.02s0-.06,0-.09c0-.23.02-.46.05-.68"/>
      <path class="cls-3" d="m66.83,42.41s0,0,0-.01c0,0,0,0,0,.01,0,0,.01.01.02.02,0,0,0-.01,0-.02"/>
      <path class="cls-6" d="m18.35,55.54s.02-.06.04-.09c.26-.68.54-1.34.84-2,.08-.18.17-.37.25-.55.24-.52.5-1.03.77-1.54.11-.21.21-.41.33-.62.06-.11.13-.22.2-.33.29-.5.57-1.01.88-1.5.07-.12.15-.23.22-.35.38-.59.78-1.17,1.19-1.74.04-.05.07-.1.11-.15.44-.59.9-1.15,1.37-1.71.1-.12.2-.24.3-.36.47-.54.96-1.06,1.46-1.57.1-.1.2-.2.3-.29.53-.53,1.08-1.04,1.65-1.52,0,0,0,0,0,0,2.25-7.52,9.5-12.15,17.63-12.15,3.27,0,6.53.94,9.32,2.65,2.86,1.75,4.81,3.46,6.33,6.45,0,.02.02.03.02.04.04.08.08.15.12.22,0,0,0,0,0,0,0,0,0,0,0,0,1.27.78,2.48,1.67,3.63,2.63.38.32.76.66,1.13,1,.12.11.25.22.37.33,0,0,0,0,0-.01,0,0,0,0,0,0,.04-.08.08-.17.12-.25,1.15-7.23,4.79-11.18,8.55-11.18,2.84,0,4.9,1.69,6.46,6.24l.02.05s0,0,0,0c.44.48.87,1,1.28,1.58h0s.02.02.03.03h0s0,0,0,0c.02.07.04.13.06.2h0s-.06-.24-.06-.24c-4.68-13.86-17.79-23.84-33.23-23.84-19.37,0-35.07,15.7-35.07,35.07,0,3.82.61,7.49,1.74,10.91,0,0,0-.01,0-.02.22-1.03.49-2.06.8-3.07.24-.79.51-1.57.81-2.35"/>
      <path class="cls-2" d="m83.82,50.45l-1.22,1.37h0s0,0,0,0c-.05.18-.1.35-.17.51-.02.04-.03.08-.05.12-.05.11-.1.22-.16.33-.03.06-.06.11-.09.16-.05.08-.11.16-.16.23-.08.1-.16.2-.25.28-.04.03-.07.07-.11.1-.07.06-.14.1-.21.14-.03.02-.06.03-.08.04-.18.09-.36.14-.55.14-1.11,0-2.01-1.54-2.01-3.45h-4.04s0,0,0,0c.75.87,1.49,1.74,2.21,2.63,0,.01.02.02.03.03.71.86,1.4,1.73,2.09,2.61.03.04.07.09.1.13.65.83,1.3,1.67,1.94,2.51.06.08.12.16.19.24.68.89,1.35,1.78,2.01,2.68,0,0,0,.01.01.02,1.15-3.41,1.8-7.06,1.84-10.85l-1.14-.04-.18.06"/>
      <path d="m44.74,34.26c.09,0,.18-.01.27-.02.63-.04,1.26-.07,1.89-.07,1.9,0,3.76.2,5.57.57h0c1.28.3,3.54.92,5.22,1.63.71.3,1.4.62,2.08.98.03.02.09.05.15.08.01,0,.03.02.04.02.06.04.13.07.21.12,0,0,0,0,0,0,.09.05.2.11.31.17,0,0,.02.01.03.02.43.24.91.52,1.09.62.02.01.03.02.05.03,0,0,.03.02.03.02-.04-.08-.08-.15-.12-.22,0-.01-.02-.03-.02-.04-1.51-2.99-3.85-5.55-6.71-7.3-2.79-1.71-6.05-2.65-9.32-2.65-8.13,0-15.01,5.48-17.25,13,2.13-1.82,4.49-3.35,7.04-4.51,2.97-1.36,6.18-2.2,9.43-2.45"/>
      <path class="cls-7" d="m83.29,38.87h0s0,0,0,0c0-.01-.02-.02-.03-.03h0c-.42-.58-.84-1.1-1.28-1.58,0,0,0,0,0,0,0,0,0,0,0,0,0,0,0,0-.01-.01-.2-.22-.4-.42-.61-.62-.08-.07-.16-.14-.23-.21-.13-.12-.26-.24-.39-.34v4.65l1.78,8.16h0c.02.06.04.12.06.19l1.23,1.38h.01s1.29-.01,1.29-.01c0-.12,0-.24,0-.36h0c0-3.85-.63-7.54-1.78-11.01h0c-.02-.07-.04-.13-.06-.2"/>
      <path d="m70.72,36.73c1.43-1.4,3.34-2.53,5.39-2.53,1.62,0,3.18.66,4.64,1.86,0,0,0,.01,0,.01h0s0,0,0,0c.13.11.26.23.39.34.08.07.16.14.23.21.2.2.41.4.61.62,0,0,0,0,.01.01,0,0,0,0,0,0h0s-.02-.05-.02-.05c-1.56-4.55-4.07-7.51-6.91-7.51-3.76,0-6.95,5.21-8.1,12.44h.01c.98-1.95,2.19-3.88,3.75-5.41"/>
      <path d="m65.63,81.19s-.51-.4-1.15-1.14c-.15-.17-.31-.36-.47-.57-.12-.16-.24-.33-.37-.51-.08-.12-.16-.24-.24-.37-.24-.38-.44-.85-.65-1.32-.25-.54-.25-.89-.39-1.39-.1-.36-.19-.73-.25-1.12-.09-.58-.14-1.2-.12-1.85.01-.36.05-.73.1-1.1.05-.36.12-.73.22-1.11.28-1.13.77-2.34,1.54-3.62,0,0,.19-.43.19-.44.25-.42.31-.4.54-.8,3.35-5.65,5.15-9.91,4.27-16.49-.06-.47-.24-1.52-.33-2.01-.05.34-.24,1.43-.24,1.45-.03.15-.12.31-.16.41-1.45,4.3-3.74,7.46-7.03,11.04-.45.48-.91.98-1.39,1.47-.8.83-1.65,1.69-2.54,2.57-.36.35-.72.71-1.09,1.08-.34.34-.76,1.05-1.27,1.58-.31.87-.66,1.85-.96,2.89-.13-.05-.26-.1-.4-.15-6.39-2.47-10.67-5.78-10.67-5.78,0,0,3.29,4.29,8.84,8.31.54.39,1.07.73,1.59,1.03-.23,3.62,1.37,7.1,8.58,8.14,1.22.18,2.47.17,3.73.03-.01-.04.07-.04.06-.06,0-.02.07-.08.07-.08"/>
      <path class="cls-14" d="m61.77,71.86c6.41,1.03,15.89.86,25.73-3.74.24-.11.5.18.74.06,0,0-6.73,6.87-14.76,10.75-.23.11-.47.23-.7.34-.78.35-1.57.66-2.36.95-1.55.56-3.13.98-4.69,1.18-.07,0-.14.02-.22.03-.01-.04-.02-.07-.03-.09,0-.02-.01-.03-.01-.03,0,0-.51-.4-1.15-1.14-.15-.17-.31-.36-.47-.57-.12-.16-.24-.33-.37-.51-.08-.12-.16-.24-.24-.37-.24-.38-.48-.81-.69-1.27-.21-.46-.41-.96-.56-1.5-.1-.36-.19-.73-.25-1.12-.09-.58-.14-1.2-.12-1.85.01-.36.05-.73.1-1.1l.05-.02"/>
      <path class="cls-1" d="m57.18,64.57c.89-.89,1.74-1.74,2.54-2.57.48-.5.95-.99,1.39-1.47,3.29-3.57,5.71-6.92,7.16-11.22.03-.1.07-.24.1-.39,0-.02.01-.05.02-.07.03-.16.07-.34.1-.54.01-.14.45-.42.46-.55-.36-1.87-1.2-3.84-2.12-5.34,0,0,0,.01,0,.02,0,0-.02-.01-.02-.02-.12-.11-.25-.22-.37-.33-.37-.34-.75-.67-1.13-1-1.15-.97-2.36-1.85-3.63-2.63.06,1.05.11,2.1.12,3.15,0,.12,0,.24,0,.35,0,.41,0,.82,0,1.22-.01.52-.03,1.05-.06,1.57-.02.39-.04.77-.07,1.16,0,.04,0,.08-.01.12-.12,1.47-.3,2.93-.57,4.37l-.46,2.19c-.97,3.92-2.93,7.47-4.54,11.14-.43.97-.83,1.96-1.19,2.96-.03.09-.07.19-.1.28.5-.53.95-.99,1.29-1.32.37-.37.73-.73,1.09-1.08"/>
      <path class="cls-6" d="m36.01,85.63c2.35-1.04,4.52-1.69,7.1-2.2-.01-.56-.04-1.12-.09-1.67,1.11-2.87,2.13-5.76,3.05-8.66-1.65.16-3.28.41-4.9.76-1.2.25-2.38.57-3.55.93-.94.28-1.87.61-2.79.96l3.64.88-2.93,9.21.47-.19"/>
      <path class="cls-5" d="m81.08,58.35c-.64-.84-1.29-1.68-1.94-2.51-.03-.04-.07-.09-.1-.13-.69-.88-1.38-1.75-2.09-2.61,0-.01-.02-.02-.03-.03-.73-.89-1.46-1.76-2.21-2.63-.05-.06-.09-.11-.14-.17-.46-.53-.92-1.05-1.39-1.57-.16-.18-.33-.36-.49-.54-.39-.42-.78-.84-1.18-1.26-.31-.32-.62-.64-.93-.96-.29-.3-.59-.6-.89-.9-.64-.63-1.29-1.26-1.96-1.87-.29-.27-.59-.53-.89-.79,0,0,0,0,0,0,.63,1.82,1.36,3.66,1.72,5.56.09.49.17.97.24,1.44.88,6.57-1.22,10.86-4.57,16.51-.24.4-.49.82-.74,1.24-.76,1.28-1.25,2.48-1.54,3.62-.09.38-.17.75-.22,1.11,6.56,1.06,16.42,1.26,26.52-3.7,0,0-1.98-2.91-4.96-6.91-.67-.89-1.34-1.79-2.01-2.68-.06-.08-.12-.16-.19-.24"/>
      <path class="cls-13" d="m35.2,87.47l3.28-10.85-3.64-.88c-.82.31-1.63.63-2.42.99l-3.25,10.74,3.63.06,2.41-.06"/>
      <path class="cls-2" d="m37.51,82.78c.32.12.65.23.97.35,3.63,1.27,7.52,1.97,11.59,1.97,4.63,0,9.05-.91,13.1-2.54.21-.09.42-.18.64-.27.34-.15.69-.3,1.02-.45.3-.14.6-.28.9-.43-.07,0-.14.02-.22.03-1.26.14-2.51.15-3.73-.03-7.22-1.04-8.81-4.52-8.58-8.14-.52-.3-1.05-.64-1.59-1.03-5.55-4.03-8.84-8.31-8.84-8.31,0,0,4.28,3.3,10.67,5.78.14.05.27.1.4.15.3-1.03.65-2.01.96-2.89.03-.09.07-.19.1-.28.36-1,.76-1.99,1.19-2.96,1.61-3.67,3.58-7.22,4.54-11.14l.46-2.19h-3.95s0,0,0,0h0s0,.02,0,.03c0,.65-.13,1.27-.37,1.83-.12.28-.27.55-.43.8-.34.5-.77.93-1.27,1.27-.25.17-.52.32-.8.43-.56.24-1.18.37-1.83.37-.17,0-.33,0-.49-.03-.04,0-.07-.01-.11-.02-.12-.02-.25-.03-.37-.06-.03,0-.07-.02-.1-.03-.12-.03-.25-.06-.36-.1-.02,0-.04-.02-.06-.02-.13-.04-.26-.09-.38-.14-.01,0-.02-.01-.03-.02-.13-.06-.26-.12-.39-.19h0c-.41-.23-.77-.52-1.09-.85l-13.52-3.3h-14.75c-.06.11-.13.22-.2.33-.11.2-.22.41-.33.62-.27.51-.52,1.02-.77,1.54-.09.18-.17.37-.25.55-.3.66-.58,1.33-.84,2-.01.03-.02.06-.04.09-.29.77-.56,1.56-.81,2.35-.31,1.01-.58,2.04-.8,3.07,2.32,7.08,6.84,13.17,12.75,17.46.17.12.35.24.53.36,1,.7,2.03,1.35,3.1,1.94,1.41.78,2.87,1.47,4.38,2.05"/>
      <path class="cls-12" d="m72.88,91.16c-.09-.93-.15-1.87-.15-2.82,0-.57-.46-1.03-1.03-1.03H28.3c-.57,0-1.03.46-1.03,1.03,0,.95-.06,1.89-.15,2.82-.1,1.03-.26,2.05-.47,3.05.63.33,1.26.66,1.91.96.42-1.86.69-3.78.75-5.73,0-.02,0-.04,0-.07h41.37s0,.04,0,.07c.07,1.95.33,3.87.76,5.73.65-.31,1.28-.63,1.91-.96-.21-1-.37-2.02-.47-3.05"/>
    </g>
  </g>
</svg>