<?xml version="1.0" encoding="UTF-8"?>
<svg id="Layer_2" data-name="Layer 2" xmlns="http://www.w3.org/2000/svg" viewBox="0 0 100 97.5">
  <defs>
    <style>
      .cls-1 {
        fill: #001e36;
      }

      .cls-2 {
        fill: #31a8ff;
      }
    </style>
  </defs>
  <g id="Layer_1-2" data-name="Layer 1">
    <g id="Layer_2-2" data-name="Layer 2">
      <g id="Surfaces">
        <g id="Photo_Surface" data-name="Photo Surface">
          <g id="Outline_no_shadow" data-name="Outline no shadow">
            <path class="cls-1" d="m17.71,0h64.58c9.79,0,17.71,7.92,17.71,17.71v62.08c0,9.79-7.92,17.71-17.71,17.71H17.71c-9.79,0-17.71-7.92-17.71-17.71V17.71C0,7.92,7.92,0,17.71,0Z"/>
          </g>
        </g>
      </g>
      <g id="Outlined_Mnemonics_Logos" data-name="Outlined Mnemonics Logos">
        <g id="Ps">
          <path class="cls-2" d="m22.5,68.38V25.5c0-.29.12-.46.42-.46.71,0,1.37,0,2.33-.04,1-.04,2.04-.04,3.17-.08,1.12-.04,2.33-.04,3.62-.08,1.29-.04,2.54-.04,3.79-.04,3.42,0,6.25.42,8.58,1.29,2.08.71,4,1.88,5.58,3.42,1.33,1.33,2.37,2.96,3.04,4.75.62,1.75.96,3.54.96,5.42,0,3.58-.83,6.54-2.5,8.87s-4,4.08-6.71,5.08c-2.83,1.04-5.96,1.42-9.38,1.42-1,0-1.67,0-2.08-.04s-1-.04-1.79-.04v13.37c.04.29-.17.54-.46.58h-8.08c-.33,0-.5-.17-.5-.54Zm9.08-35.29v14c.58.04,1.12.08,1.63.08h2.21c1.63,0,3.25-.25,4.79-.75,1.33-.38,2.5-1.17,3.42-2.21.87-1.04,1.29-2.46,1.29-4.29.04-1.29-.29-2.58-.96-3.71-.71-1.08-1.71-1.92-2.92-2.37-1.54-.62-3.21-.87-4.92-.83-1.08,0-2.04,0-2.83.04-.83-.04-1.42,0-1.71.04h0Z"/>
          <path class="cls-2" d="m80,44.54c-1.25-.67-2.58-1.12-4-1.42-1.54-.33-3.08-.54-4.67-.54-.83-.04-1.71.08-2.5.29-.54.13-1,.42-1.29.83-.21.33-.33.75-.33,1.12s.17.75.42,1.08c.37.46.88.83,1.42,1.12.96.5,1.96.96,2.96,1.38,2.25.75,4.42,1.79,6.42,3.04,1.38.87,2.5,2.04,3.29,3.46.67,1.33,1,2.79.96,4.29.04,1.96-.54,3.92-1.62,5.54-1.17,1.67-2.79,2.96-4.67,3.71-2.04.88-4.54,1.33-7.54,1.33-1.92,0-3.79-.17-5.67-.54-1.46-.25-2.92-.71-4.25-1.33-.29-.17-.5-.46-.46-.79v-7.25c0-.13.04-.29.17-.37.13-.08.25-.04.37.04,1.62.96,3.33,1.62,5.17,2.04,1.58.42,3.25.62,4.92.62s2.71-.21,3.46-.58c.67-.29,1.12-1,1.12-1.75,0-.58-.33-1.12-1-1.67-.67-.54-2.04-1.17-4.08-1.96-2.13-.75-4.08-1.75-5.92-3-1.29-.92-2.37-2.12-3.17-3.54-.67-1.33-1-2.79-.96-4.25,0-1.79.5-3.5,1.42-5.04,1.04-1.67,2.58-3,4.38-3.83,1.96-1,4.42-1.46,7.37-1.46,1.71,0,3.46.13,5.17.38,1.25.17,2.46.5,3.58.96.17.04.33.21.42.38.04.17.08.33.08.5v6.79c0,.17-.08.33-.21.42-.37.08-.58.08-.75,0Z"/>
        </g>
      </g>
    </g>
  </g>
</svg>