<?xml version="1.0" encoding="UTF-8"?>
<svg id="Layer_2" data-name="Layer 2" xmlns="http://www.w3.org/2000/svg" viewBox="0 0 100 88.96">
  <defs>
    <style>
      .cls-1 {
        fill: #fff;
      }

      .cls-2 {
        fill: #53c1de;
      }
    </style>
  </defs>
  <g id="Layer_1-2" data-name="Layer 1">
    <g>
      <path class="cls-2" d="m49.99,35.47c-4.93,0-8.93,4-8.93,8.93s4,8.93,8.93,8.93,8.93-4,8.93-8.93-4-8.93-8.93-8.93Zm0,0c-4.93,0-8.93,4-8.93,8.93s4,8.93,8.93,8.93,8.93-4,8.93-8.93-4-8.93-8.93-8.93Zm0,0c-4.93,0-8.93,4-8.93,8.93s4,8.93,8.93,8.93,8.93-4,8.93-8.93-4-8.93-8.93-8.93Zm0,0c-4.93,0-8.93,4-8.93,8.93s4,8.93,8.93,8.93,8.93-4,8.93-8.93-4-8.93-8.93-8.93Zm0,0c-4.93,0-8.93,4-8.93,8.93s4,8.93,8.93,8.93,8.93-4,8.93-8.93-4-8.93-8.93-8.93Zm0,0c-4.93,0-8.93,4-8.93,8.93s4,8.93,8.93,8.93,8.93-4,8.93-8.93-4-8.93-8.93-8.93Zm0,0c-4.93,0-8.93,4-8.93,8.93s4,8.93,8.93,8.93,8.93-4,8.93-8.93-4-8.93-8.93-8.93Zm0,0c-4.93,0-8.93,4-8.93,8.93s4,8.93,8.93,8.93,8.93-4,8.93-8.93-4-8.93-8.93-8.93Zm32.23-6.63c-1.06-.37-2.15-.71-3.23-1.03.19-.73.35-1.46.5-2.19,2.43-11.84.84-21.36-4.59-24.5-5.23-3.01-13.74.13-22.37,7.64-.84.73-1.68,1.49-2.48,2.28-.54-.52-1.1-1.03-1.66-1.53C39.37,1.5,30.31-1.88,24.87,1.26c-5.21,3.03-6.76,11.97-4.56,23.19.21,1.1.45,2.2.73,3.31-1.27.37-2.52.75-3.7,1.16C6.76,32.62,0,38.4,0,44.4s7.26,12.42,18.28,16.19c.9.3,1.79.58,2.71.84-.3,1.18-.56,2.37-.78,3.57-2.09,11.02-.47,19.76,4.74,22.76,5.36,3.1,14.38-.09,23.14-7.77.71-.6,1.4-1.23,2.09-1.9.88.84,1.79,1.66,2.71,2.46,8.5,7.3,16.9,10.25,22.09,7.25,5.36-3.1,7.1-12.49,4.84-23.92-.17-.88-.37-1.77-.6-2.67.63-.19,1.25-.39,1.85-.58,11.47-3.81,18.94-9.95,18.94-16.23s-6.98-11.84-17.78-15.56Zm-26.89-16.86c7.39-6.42,14.29-8.96,17.42-7.15,3.36,1.94,4.67,9.73,2.56,19.94-.15.65-.3,1.33-.45,1.98-4.15-.95-8.67-1.66-13.37-2.11-2.74-3.9-5.6-7.47-8.46-10.55.75-.73,1.51-1.42,2.3-2.11Zm-22.97,42.73c1.01,1.74,2.05,3.44,3.14,5.14-3.27-.37-6.37-.86-9.21-1.49.88-2.84,1.96-5.81,3.23-8.81.9,1.74,1.85,3.47,2.84,5.17Zm-6.01-23.88c2.84-.63,5.88-1.16,9.06-1.55-1.06,1.66-2.07,3.32-3.06,5.04-.99,1.7-1.92,3.42-2.82,5.17-1.25-2.95-2.32-5.86-3.17-8.67Zm5.43,13.69c1.33-2.75,2.75-5.43,4.26-8.07,1.51-2.63,3.14-5.21,4.86-7.71,2.97-.22,6.01-.35,9.09-.35s6.16.13,9.13.35c1.7,2.5,3.31,5.06,4.82,7.69,1.51,2.61,2.95,5.3,4.31,8.01-1.34,2.76-2.78,5.45-4.3,8.1-1.53,2.63-3.12,5.21-4.8,7.73-2.97.22-6.03.32-9.17.32s-6.13-.09-9.04-.28c-1.74-2.52-3.36-5.1-4.89-7.75-1.53-2.63-2.95-5.32-4.28-8.05Zm35.87,10.16c1.01-1.74,1.96-3.51,2.89-5.3,1.34,3.04,2.47,5.99,3.36,8.8-2.89.67-6.03,1.19-9.34,1.61,1.06-1.68,2.09-3.38,3.08-5.1Zm2.86-15.18c-.93-1.76-1.89-3.49-2.88-5.21-.99-1.68-2-3.36-3.04-5,3.19.41,6.26.95,9.11,1.61-.86,2.76-1.92,5.64-3.19,8.61Zm-20.47-22.33c1.96,2.13,3.94,4.52,5.88,7.1-3.94-.19-7.88-.19-11.82,0,1.94-2.56,3.94-4.95,5.94-7.1ZM27,4.96c3.36-1.94,10.76.82,18.54,7.75.5.45,1.01.92,1.51,1.38-2.91,3.12-5.79,6.67-8.53,10.55-4.69.43-9.21,1.14-13.33,2.07-.26-1.03-.49-2.05-.69-3.08-1.89-9.62-.64-16.84,2.5-18.67Zm-4.87,52.36c-.82-.24-1.64-.5-2.47-.78-4.87-1.66-8.91-3.83-11.65-6.2-2.48-2.11-3.73-4.22-3.73-5.94,0-3.64,5.42-8.29,14.47-11.45,1.14-.39,2.3-.75,3.45-1.08,1.25,4.07,2.88,8.33,4.87,12.64-2.02,4.37-3.68,8.68-4.95,12.81Zm23.16,19.46c-3.88,3.4-7.77,5.81-11.19,7-3.08,1.1-5.55,1.12-7.02.28-3.16-1.83-4.46-8.85-2.67-18.26.21-1.12.45-2.22.73-3.32,4.09.9,8.63,1.55,13.46,1.94,2.76,3.9,5.68,7.47,8.59,10.61-.62.6-1.25,1.2-1.9,1.76Zm4.87-4.82c-2.02-2.18-4.03-4.61-6.01-7.21,1.92.07,3.87.11,5.84.11s4.05-.04,6.05-.13c-1.96,2.65-3.92,5.06-5.88,7.23Zm25.94,5.94c-.6,3.21-1.79,5.34-3.27,6.2-3.16,1.83-9.9-.54-17.16-6.8-.82-.71-1.66-1.48-2.5-2.3,2.8-3.08,5.62-6.65,8.37-10.64,4.84-.41,9.41-1.12,13.56-2.07.19.82.37,1.62.54,2.41.99,5.06,1.14,9.64.47,13.2Zm3.62-21.34c-.54.19-1.1.37-1.66.54-1.27-4.01-2.99-8.27-5.08-12.68,2-4.29,3.64-8.5,4.87-12.47,1.03.3,2.02.6,2.97.93,9.26,3.19,14.9,7.9,14.9,11.52,0,3.87-6.11,8.89-16,12.16Zm-29.73-3.23c4.93,0,8.93-4,8.93-8.93s-4-8.93-8.93-8.93-8.93,4-8.93,8.93,4,8.93,8.93,8.93Zm0-17.85c-4.93,0-8.93,4-8.93,8.93s4,8.93,8.93,8.93,8.93-4,8.93-8.93-4-8.93-8.93-8.93Zm0,0c-4.93,0-8.93,4-8.93,8.93s4,8.93,8.93,8.93,8.93-4,8.93-8.93-4-8.93-8.93-8.93Zm0,0c-4.93,0-8.93,4-8.93,8.93s4,8.93,8.93,8.93,8.93-4,8.93-8.93-4-8.93-8.93-8.93Zm0,0c-4.93,0-8.93,4-8.93,8.93s4,8.93,8.93,8.93,8.93-4,8.93-8.93-4-8.93-8.93-8.93Zm0,0c-4.93,0-8.93,4-8.93,8.93s4,8.93,8.93,8.93,8.93-4,8.93-8.93-4-8.93-8.93-8.93Zm0,0c-4.93,0-8.93,4-8.93,8.93s4,8.93,8.93,8.93,8.93-4,8.93-8.93-4-8.93-8.93-8.93Zm0,0c-4.93,0-8.93,4-8.93,8.93s4,8.93,8.93,8.93,8.93-4,8.93-8.93-4-8.93-8.93-8.93Zm0,0c-4.93,0-8.93,4-8.93,8.93s4,8.93,8.93,8.93,8.93-4,8.93-8.93-4-8.93-8.93-8.93Z"/>
      <path class="cls-1" d="m49.99,35.47c-4.93,0-8.93,4-8.93,8.93s4,8.93,8.93,8.93,8.93-4,8.93-8.93-4-8.93-8.93-8.93Z"/>
      <circle class="cls-2" cx="49.99" cy="44.4" r="8.93"/>
    </g>
  </g>
</svg>