<?xml version="1.0" encoding="UTF-8"?>
<svg id="Layer_2" data-name="Layer 2" xmlns="http://www.w3.org/2000/svg" viewBox="0 0 100 100">
  <defs>
    <style>
      .cls-1 {
        fill: #fff;
      }

      .cls-2 {
        fill: #c69;
        fill-rule: evenodd;
      }
    </style>
  </defs>
  <g id="Layer_1-2" data-name="Layer 1">
    <g>
      <path class="cls-2" d="m50,0c27.61,0,50,22.39,50,50s-22.39,50-50,50S0,77.61,0,50,22.39,0,50,0Z"/>
      <path class="cls-1" d="m81.36,21.4c-2.26-8.88-16.99-11.79-30.93-6.85-8.73,2.93-16.79,7.56-23.73,13.61-7.68,7.18-8.9,13.43-8.4,16.04,1.79,9.21,14.4,15.24,19.59,19.7v.02c-1.53.75-12.73,6.43-15.36,12.21-2.76,6.11.44,10.5,2.56,11.09,6.54,1.57,13.36-1.19,16.96-6.87,2.94-4.56,3.56-10.23,1.69-15.31,2.5-.64,5.1-.78,7.65-.44,8.77,1.03,10.49,6.5,10.16,8.79-.31,1.65-1.33,3.09-2.78,3.93-.61.38-.8.51-.75.8.07.41.36.4.88.31,2.7-.85,4.59-3.27,4.77-6.1.21-5.36-4.94-11.38-14.05-11.22-2.65-.08-5.29.29-7.82,1.07-.12-.14-.25-.29-.39-.43-5.64-6.01-16.05-10.26-15.61-18.35.16-2.94,1.18-10.68,20-20.06,15.43-7.69,27.78-5.57,29.91-.88,3.05,6.7-6.6,19.15-22.62,20.94-3.59.73-7.31-.22-10.12-2.56-.84-.93-.97-.97-1.28-.8-.51.28-.19,1.1,0,1.59,1.24,2.23,3.33,3.87,5.79,4.55,6.3,1.37,12.87.72,18.78-1.86,9.72-3.75,17.3-14.19,15.07-22.92Zm-41.3,45.25c.71,2.45.67,5.05-.1,7.47-.08.25-.17.5-.27.75s-.21.49-.32.71c-.6,1.23-1.38,2.36-2.31,3.37-2.9,3.17-6.96,4.37-8.7,3.36-1.88-1.09-.94-5.56,2.43-9.12,2.59-2.56,5.57-4.68,8.84-6.29h0l.45-.25Z"/>
    </g>
  </g>
</svg>