<?xml version="1.0" encoding="UTF-8"?>
<svg id="Layer_2" data-name="Layer 2" xmlns="http://www.w3.org/2000/svg" viewBox="0 0 100 79.53">
  <defs>
    <style>
      .cls-1 {
        fill: #1a1918;
      }
    </style>
  </defs>
  <g id="Layer_1-2" data-name="Layer 1">
    <path class="cls-1" d="m63.64,15.89c-1.88-1.88-4.94-1.88-6.82,0l-30.7,30.7c-3.77,3.77-9.88,3.77-13.64,0-3.77-3.77-3.77-9.88,0-13.65L42.59,2.83c-3.77-3.77-9.88-3.77-13.65,0L5.65,26.12c-7.53,7.54-7.53,19.75,0,27.29,7.54,7.54,19.75,7.54,27.29,0l30.7-30.7c1.88-1.88,1.88-4.94,0-6.82h0Zm10.23-10.23c-7.54-7.54-19.75-7.54-27.29,0l-30.7,30.7c-1.88,1.88-1.88,4.94,0,6.82,1.88,1.88,4.94,1.88,6.82,0l30.7-30.7c3.77-3.77,9.88-3.77,13.64,0,1.89,1.88,4.94,1.88,6.82,0,1.88-1.89,1.88-4.94,0-6.82h0Zm10.23,30.7c-1.88-1.88-4.94-1.88-6.82,0l-30.7,30.7c-3.77,3.77-9.88,3.77-13.65,0-1.88-1.88-4.94-1.88-6.82,0-1.89,1.88-1.89,4.94,0,6.82,7.53,7.54,19.75,7.54,27.29,0l30.7-30.7c1.88-1.88,1.88-4.94,0-6.82h0Zm10.23-10.23c-7.54-7.54-19.76-7.54-27.29,0l-30.7,30.7c-1.88,1.88-1.88,4.94,0,6.82,1.88,1.88,4.94,1.88,6.82,0l30.7-30.7c3.77-3.77,9.88-3.77,13.64,0,3.77,3.77,3.77,9.88,0,13.64l-30.11,30.11c3.77,3.77,9.87,3.77,13.65,0l23.29-23.29c7.53-7.54,7.53-19.75,0-27.29h0Z"/>
  </g>
</svg>