<?xml version="1.0" encoding="UTF-8"?>
<svg id="Layer_2" data-name="Layer 2" xmlns="http://www.w3.org/2000/svg" viewBox="0 0 100 60">
  <defs>
    <style>
      .cls-1 {
        fill: #38bdf8;
        fill-rule: evenodd;
      }
    </style>
  </defs>
  <g id="Layer_1-2" data-name="Layer 1">
    <path class="cls-1" d="m50,0c-13.33,0-21.67,6.67-25,20,5-6.67,10.83-9.17,17.5-7.5,3.8.95,6.52,3.71,9.53,6.76,4.9,4.98,10.58,10.74,22.97,10.74,13.33,0,21.67-6.67,25-20-5,6.67-10.83,9.17-17.5,7.5-3.8-.95-6.52-3.71-9.53-6.76C68.07,5.76,62.39,0,50,0Zm-25,30c-13.33,0-21.67,6.67-25,20,5-6.67,10.83-9.17,17.5-7.5,3.8.95,6.52,3.71,9.53,6.76,4.9,4.98,10.58,10.74,22.97,10.74,13.33,0,21.67-6.67,25-20-5,6.67-10.83,9.17-17.5,7.5-3.8-.95-6.52-3.71-9.53-6.76-4.9-4.98-10.58-10.74-22.97-10.74Z"/>
  </g>
</svg>