<?xml version="1.0" encoding="UTF-8"?>
<svg id="Layer_2" data-name="Layer 2" xmlns="http://www.w3.org/2000/svg" viewBox="0 0 100 100">
  <defs>
    <style>
      .cls-1 {
        fill: #fff;
      }

      .cls-2 {
        fill: #007acc;
      }
    </style>
  </defs>
  <g id="Layer_1-2" data-name="Layer 1">
    <g>
      <polygon class="cls-2" points="0 50 0 100 50 100 100 100 100 50 100 0 50 0 0 0 0 50"/>
      <path class="cls-1" d="m22.11,50.33l-.03,4.1h13.02v36.98h9.21v-36.98h13.02v-4.02c0-2.22-.05-4.08-.11-4.13-.05-.06-7.97-.1-17.57-.08l-17.48.05-.05,4.08Z"/>
      <path class="cls-1" d="m80.69,46.14c2.54.63,4.48,1.76,6.25,3.6.92.98,2.29,2.78,2.4,3.21.03.13-4.32,3.05-6.95,4.68-.1.06-.48-.35-.9-.98-1.29-1.87-2.63-2.68-4.7-2.83-3.03-.21-4.98,1.38-4.97,4.03,0,.78.11,1.24.43,1.87.67,1.38,1.9,2.21,5.79,3.89,7.16,3.08,10.22,5.11,12.13,8,2.13,3.22,2.6,8.37,1.16,12.19-1.59,4.16-5.52,6.98-11.06,7.92-1.71.3-5.78.25-7.62-.08-4.02-.71-7.83-2.7-10.17-5.3-.92-1.02-2.71-3.67-2.6-3.86.05-.06.46-.32.92-.59.44-.25,2.13-1.22,3.71-2.14l2.87-1.67.6.89c.84,1.29,2.68,3.05,3.79,3.63,3.19,1.68,7.57,1.44,9.73-.49.92-.84,1.3-1.71,1.3-3,0-1.16-.14-1.67-.75-2.54-.78-1.11-2.37-2.05-6.87-4-5.16-2.22-7.38-3.6-9.41-5.79-1.17-1.27-2.29-3.3-2.75-5-.38-1.41-.48-4.95-.17-6.38,1.06-4.98,4.83-8.46,10.25-9.49,1.76-.33,5.86-.21,7.59.22Z"/>
    </g>
  </g>
</svg>