<?xml version="1.0" encoding="UTF-8"?>
<svg id="Layer_2" data-name="Layer 2" xmlns="http://www.w3.org/2000/svg" viewBox="0 0 88.38 100">
  <defs>
    <style>
      .cls-1 {
        fill: #fff;
      }

      .cls-2 {
        fill: #1c78c0;
      }

      .cls-3 {
        fill: #8ed6fb;
      }
    </style>
  </defs>
  <g id="Layer_1-2" data-name="Layer 1">
    <g>
      <polygon class="cls-1" points="44.19 0 88.38 25 88.38 75 44.19 100 0 75 0 25 44.19 0"/>
      <path class="cls-3" d="m80.49,73.27l-34.83,19.73v-15.34l21.71-11.96,13.12,7.57Zm2.38-2.15V29.9l-12.74,7.35v26.51l12.74,7.35Zm-75.12,2.15l34.83,19.71v-15.34l-21.71-11.94-13.12,7.57h0Zm-2.38-2.15V29.9l12.74,7.35v26.51l-12.74,7.35h0Zm1.48-43.89L42.59,7.02v14.84l-22.89,12.59-.18.1-12.66-7.32h0Zm74.52,0L45.66,7.02v14.84l22.88,12.61.18.1,12.66-7.34h0Z"/>
      <path class="cls-2" d="m42.59,74.15l-21.41-11.79v-23.33l21.41,12.36v22.76h0Zm3.07,0l21.41-11.77v-23.35l-21.41,12.36v22.76Zm-23.04-37.82l21.51-11.82,21.49,11.82-21.49,12.41-21.51-12.41h0Z"/>
    </g>
  </g>
</svg>